G04 #@! TF.GenerationSoftware,KiCad,Pcbnew,8.0.2-1*
G04 #@! TF.CreationDate,2024-12-21T19:46:59+01:00*
G04 #@! TF.ProjectId,ten_to_six,74656e5f-746f-45f7-9369-782e6b696361,rev?*
G04 #@! TF.SameCoordinates,Original*
G04 #@! TF.FileFunction,Legend,Bot*
G04 #@! TF.FilePolarity,Positive*
%FSLAX46Y46*%
G04 Gerber Fmt 4.6, Leading zero omitted, Abs format (unit mm)*
G04 Created by KiCad (PCBNEW 8.0.2-1) date 2024-12-21 19:46:59*
%MOMM*%
%LPD*%
G01*
G04 APERTURE LIST*
%ADD10C,0.150000*%
%ADD11C,0.200000*%
%ADD12C,0.010000*%
%ADD13C,0.000000*%
%ADD14C,1.524000*%
%ADD15C,1.854000*%
G04 APERTURE END LIST*
D10*
X135420066Y-91205495D02*
X135420066Y-91776923D01*
X135420066Y-91776923D02*
X135458161Y-91891209D01*
X135458161Y-91891209D02*
X135534352Y-91967400D01*
X135534352Y-91967400D02*
X135648637Y-92005495D01*
X135648637Y-92005495D02*
X135724828Y-92005495D01*
X135077209Y-91281685D02*
X135039113Y-91243590D01*
X135039113Y-91243590D02*
X134962923Y-91205495D01*
X134962923Y-91205495D02*
X134772447Y-91205495D01*
X134772447Y-91205495D02*
X134696256Y-91243590D01*
X134696256Y-91243590D02*
X134658161Y-91281685D01*
X134658161Y-91281685D02*
X134620066Y-91357876D01*
X134620066Y-91357876D02*
X134620066Y-91434066D01*
X134620066Y-91434066D02*
X134658161Y-91548352D01*
X134658161Y-91548352D02*
X135115304Y-92005495D01*
X135115304Y-92005495D02*
X134620066Y-92005495D01*
D11*
X117482000Y-87169000D02*
X117482000Y-96219000D01*
X117482000Y-87169000D02*
X119752000Y-87169000D01*
X117482000Y-96219000D02*
X132962000Y-96219000D01*
X124912000Y-87169000D02*
X120392000Y-87169000D01*
X130072000Y-87169000D02*
X125552000Y-87169000D01*
X132962000Y-87169000D02*
X130712000Y-87169000D01*
X132962000Y-96219000D02*
X132962000Y-87169000D01*
X119752000Y-87169000D02*
G75*
G02*
X120392000Y-87169000I320000J-125001D01*
G01*
X124912000Y-87169000D02*
G75*
G02*
X125552000Y-87169000I320000J-125001D01*
G01*
X130072000Y-87169000D02*
G75*
G02*
X130712000Y-87169000I320000J-125001D01*
G01*
X129222000Y-93564000D02*
G75*
G02*
X129022000Y-93564000I-100000J0D01*
G01*
X129022000Y-93564000D02*
G75*
G02*
X129222000Y-93564000I100000J0D01*
G01*
D12*
X127472000Y-96119000D02*
X122972000Y-96119000D01*
X122972000Y-94869000D01*
X127472000Y-94869000D01*
X127472000Y-96119000D01*
G36*
X127472000Y-96119000D02*
G01*
X122972000Y-96119000D01*
X122972000Y-94869000D01*
X127472000Y-94869000D01*
X127472000Y-96119000D01*
G37*
D13*
G36*
X126372443Y-84325610D02*
G01*
X126378491Y-84326834D01*
X126392938Y-84329747D01*
X126411537Y-84333490D01*
X126431754Y-84337553D01*
X126476555Y-84346550D01*
X126477016Y-84423165D01*
X126477417Y-84452061D01*
X126479262Y-84496945D01*
X126482810Y-84538056D01*
X126488349Y-84578351D01*
X126496165Y-84620785D01*
X126496284Y-84621374D01*
X126500867Y-84645232D01*
X126503370Y-84662067D01*
X126503850Y-84673091D01*
X126502360Y-84679517D01*
X126498955Y-84682557D01*
X126496910Y-84683354D01*
X126491718Y-84685046D01*
X126490315Y-84684588D01*
X126483504Y-84680688D01*
X126473457Y-84674048D01*
X126455094Y-84657987D01*
X126435013Y-84632214D01*
X126416583Y-84599648D01*
X126400134Y-84561187D01*
X126385996Y-84517734D01*
X126374499Y-84470188D01*
X126365973Y-84419450D01*
X126360748Y-84366421D01*
X126357933Y-84322665D01*
X126372443Y-84325610D01*
G37*
G36*
X125209553Y-85001199D02*
G01*
X125225809Y-85022000D01*
X125239146Y-85039326D01*
X125249851Y-85053555D01*
X125258214Y-85065065D01*
X125264525Y-85074234D01*
X125269071Y-85081438D01*
X125272143Y-85087057D01*
X125274029Y-85091467D01*
X125275018Y-85095047D01*
X125275400Y-85098173D01*
X125275463Y-85101225D01*
X125275463Y-85120592D01*
X125019457Y-85120592D01*
X124763452Y-85120592D01*
X124763452Y-85270066D01*
X124763456Y-85286471D01*
X124763544Y-85325871D01*
X124763828Y-85357978D01*
X124764416Y-85383699D01*
X124765415Y-85403943D01*
X124766933Y-85419617D01*
X124769076Y-85431628D01*
X124771953Y-85440886D01*
X124775670Y-85448297D01*
X124780336Y-85454771D01*
X124786056Y-85461213D01*
X124791177Y-85466274D01*
X124805107Y-85475925D01*
X124822611Y-85482109D01*
X124846103Y-85485814D01*
X124874388Y-85488712D01*
X124874388Y-85509456D01*
X124874388Y-85530201D01*
X124697317Y-85530201D01*
X124520247Y-85530201D01*
X124520247Y-85509456D01*
X124520247Y-85488712D01*
X124548532Y-85485814D01*
X124567238Y-85483145D01*
X124585826Y-85477554D01*
X124600227Y-85468492D01*
X124612828Y-85454809D01*
X124624782Y-85439142D01*
X124625998Y-85279867D01*
X124627213Y-85120592D01*
X124557356Y-85120592D01*
X124487500Y-85120592D01*
X124467606Y-85048773D01*
X124462223Y-85029155D01*
X124456434Y-85007575D01*
X124451837Y-84989891D01*
X124448805Y-84977544D01*
X124447712Y-84971971D01*
X124448206Y-84970681D01*
X124454839Y-84967962D01*
X124468248Y-84966989D01*
X124481576Y-84967819D01*
X124491589Y-84971560D01*
X124501072Y-84979816D01*
X124511100Y-84988439D01*
X124523206Y-84994569D01*
X124538876Y-84998454D01*
X124559745Y-85000497D01*
X124587448Y-85001099D01*
X124631183Y-85001123D01*
X124631183Y-84786871D01*
X124763452Y-84786871D01*
X124763452Y-85001123D01*
X124936917Y-85001123D01*
X124958925Y-85001120D01*
X124998022Y-85001083D01*
X125029685Y-85000975D01*
X125054652Y-85000766D01*
X125073662Y-85000421D01*
X125087453Y-84999907D01*
X125096765Y-84999192D01*
X125102335Y-84998243D01*
X125104903Y-84997025D01*
X125105207Y-84995508D01*
X125103985Y-84993656D01*
X125100308Y-84989171D01*
X125091746Y-84978610D01*
X125078800Y-84962593D01*
X125061958Y-84941723D01*
X125041703Y-84916603D01*
X125018521Y-84887833D01*
X124992898Y-84856017D01*
X124965320Y-84821756D01*
X124936271Y-84785652D01*
X124907508Y-84749911D01*
X124879959Y-84715705D01*
X124854375Y-84683969D01*
X124831241Y-84655299D01*
X124811039Y-84630294D01*
X124794251Y-84609551D01*
X124781361Y-84593667D01*
X124772850Y-84583240D01*
X124769203Y-84578867D01*
X124768986Y-84578655D01*
X124767704Y-84578730D01*
X124766629Y-84581763D01*
X124765744Y-84588375D01*
X124765033Y-84599184D01*
X124764479Y-84614809D01*
X124764064Y-84635871D01*
X124763770Y-84662989D01*
X124763582Y-84696782D01*
X124763482Y-84737870D01*
X124763452Y-84786871D01*
X124631183Y-84786871D01*
X124631183Y-84661916D01*
X124631183Y-84322709D01*
X124648044Y-84322709D01*
X124664905Y-84322709D01*
X124970184Y-84702283D01*
X124989716Y-84726570D01*
X125034507Y-84782271D01*
X125074353Y-84831852D01*
X125109546Y-84875693D01*
X125140373Y-84914170D01*
X125167124Y-84947662D01*
X125190087Y-84976545D01*
X125205060Y-84995508D01*
X125209553Y-85001199D01*
G37*
G36*
X125865998Y-84325318D02*
G01*
X125893029Y-84325546D01*
X125913908Y-84326172D01*
X125930637Y-84327391D01*
X125945217Y-84329396D01*
X125959649Y-84332381D01*
X125975934Y-84336541D01*
X125981118Y-84337966D01*
X126022341Y-84351337D01*
X126062649Y-84367785D01*
X126100144Y-84386379D01*
X126132928Y-84406189D01*
X126159101Y-84426284D01*
X126174454Y-84440045D01*
X126159242Y-84541386D01*
X126157789Y-84551017D01*
X126152890Y-84582446D01*
X126148827Y-84606443D01*
X126145429Y-84623825D01*
X126142522Y-84635413D01*
X126139932Y-84642026D01*
X126137489Y-84644483D01*
X126136877Y-84644641D01*
X126127734Y-84646602D01*
X126115595Y-84648815D01*
X126100243Y-84651393D01*
X126097593Y-84611041D01*
X126094968Y-84585609D01*
X126085544Y-84543889D01*
X126070058Y-84508037D01*
X126048426Y-84477878D01*
X126020562Y-84453238D01*
X125992687Y-84435864D01*
X125951098Y-84417877D01*
X125906076Y-84407262D01*
X125856818Y-84403777D01*
X125848938Y-84403878D01*
X125807625Y-84408293D01*
X125771053Y-84419469D01*
X125738450Y-84437718D01*
X125709040Y-84463350D01*
X125687131Y-84489923D01*
X125668906Y-84521413D01*
X125655839Y-84557017D01*
X125647513Y-84597892D01*
X125643510Y-84645196D01*
X125643500Y-84645465D01*
X125643230Y-84681204D01*
X125645587Y-84714448D01*
X125650988Y-84746749D01*
X125659851Y-84779659D01*
X125672593Y-84814731D01*
X125689631Y-84853516D01*
X125711384Y-84897568D01*
X125714964Y-84904459D01*
X125747051Y-84961010D01*
X125785784Y-85021340D01*
X125830640Y-85084788D01*
X125881095Y-85150691D01*
X125936626Y-85218387D01*
X125996711Y-85287215D01*
X126060827Y-85356511D01*
X126128451Y-85425615D01*
X126130290Y-85427444D01*
X126151957Y-85449040D01*
X126168347Y-85465632D01*
X126180195Y-85478149D01*
X126188238Y-85487517D01*
X126193212Y-85494663D01*
X126195853Y-85500514D01*
X126196897Y-85505998D01*
X126197082Y-85512042D01*
X126197082Y-85530251D01*
X125846228Y-85529159D01*
X125495374Y-85528068D01*
X125451813Y-85402198D01*
X125446737Y-85387499D01*
X125436374Y-85357275D01*
X125427118Y-85329995D01*
X125419312Y-85306683D01*
X125413294Y-85288360D01*
X125409407Y-85276049D01*
X125407992Y-85270773D01*
X125409169Y-85268189D01*
X125415991Y-85266367D01*
X125429954Y-85266506D01*
X125452175Y-85267795D01*
X125474683Y-85304063D01*
X125483579Y-85318009D01*
X125503894Y-85346293D01*
X125523537Y-85367797D01*
X125543700Y-85383525D01*
X125565573Y-85394482D01*
X125590346Y-85401673D01*
X125593322Y-85402178D01*
X125607458Y-85403467D01*
X125629828Y-85404533D01*
X125660212Y-85405370D01*
X125698390Y-85405975D01*
X125744142Y-85406342D01*
X125797248Y-85406465D01*
X125981540Y-85406465D01*
X125887411Y-85311530D01*
X125883142Y-85307222D01*
X125844985Y-85268503D01*
X125812048Y-85234602D01*
X125783454Y-85204559D01*
X125758328Y-85177412D01*
X125735793Y-85152200D01*
X125714973Y-85127964D01*
X125694992Y-85103743D01*
X125674974Y-85078574D01*
X125651867Y-85048393D01*
X125607313Y-84985372D01*
X125570146Y-84925288D01*
X125540124Y-84867697D01*
X125517003Y-84812152D01*
X125500542Y-84758208D01*
X125495646Y-84731924D01*
X125492371Y-84699495D01*
X125491015Y-84664674D01*
X125491605Y-84630131D01*
X125494165Y-84598536D01*
X125498724Y-84572561D01*
X125504018Y-84553568D01*
X125523148Y-84505146D01*
X125548984Y-84461895D01*
X125581334Y-84424055D01*
X125620004Y-84391867D01*
X125664804Y-84365568D01*
X125668705Y-84363681D01*
X125699163Y-84350044D01*
X125727330Y-84339893D01*
X125755353Y-84332786D01*
X125785376Y-84328281D01*
X125819546Y-84325934D01*
X125860008Y-84325303D01*
X125865998Y-84325318D01*
G37*
G36*
X126530748Y-82934664D02*
G01*
X126558866Y-82961923D01*
X126588874Y-82982163D01*
X126599763Y-82987664D01*
X126620199Y-82996123D01*
X126641551Y-83002088D01*
X126665707Y-83005912D01*
X126694552Y-83007948D01*
X126729976Y-83008548D01*
X126794428Y-83008548D01*
X126794428Y-83066292D01*
X126794428Y-83124036D01*
X125963477Y-83122510D01*
X125905938Y-83122406D01*
X125810705Y-83122235D01*
X125723386Y-83122073D01*
X125643585Y-83121913D01*
X125570905Y-83121744D01*
X125504952Y-83121559D01*
X125445328Y-83121348D01*
X125391639Y-83121103D01*
X125343488Y-83120814D01*
X125300479Y-83120472D01*
X125262217Y-83120070D01*
X125228305Y-83119597D01*
X125198348Y-83119046D01*
X125171950Y-83118406D01*
X125148715Y-83117670D01*
X125128247Y-83116829D01*
X125110151Y-83115872D01*
X125094029Y-83114793D01*
X125079487Y-83113581D01*
X125066129Y-83112228D01*
X125053558Y-83110725D01*
X125041379Y-83109064D01*
X125029195Y-83107234D01*
X125016612Y-83105228D01*
X125003233Y-83103037D01*
X124988662Y-83100651D01*
X124908518Y-83085756D01*
X124796417Y-83058309D01*
X124688575Y-83023942D01*
X124585226Y-82982807D01*
X124486604Y-82935056D01*
X124392946Y-82880839D01*
X124304484Y-82820310D01*
X124221454Y-82753618D01*
X124144090Y-82680917D01*
X124072627Y-82602357D01*
X124007300Y-82518091D01*
X123948343Y-82428269D01*
X123900881Y-82342786D01*
X123854632Y-82243148D01*
X123815467Y-82139219D01*
X123783575Y-82031510D01*
X123759146Y-81920525D01*
X123755958Y-81902893D01*
X123749638Y-81865571D01*
X123744573Y-81831149D01*
X123740632Y-81797996D01*
X123737686Y-81764479D01*
X123735606Y-81728965D01*
X123734262Y-81689822D01*
X123733525Y-81645417D01*
X123733359Y-81612625D01*
X124127365Y-81612625D01*
X124129711Y-81694251D01*
X124134961Y-81773502D01*
X124143104Y-81847990D01*
X124157449Y-81935303D01*
X124181245Y-82038241D01*
X124211911Y-82138173D01*
X124249169Y-82234391D01*
X124292739Y-82326186D01*
X124342342Y-82412852D01*
X124397700Y-82493680D01*
X124405971Y-82504407D01*
X124427758Y-82530721D01*
X124453392Y-82559678D01*
X124481360Y-82589713D01*
X124510154Y-82619259D01*
X124538263Y-82646752D01*
X124564176Y-82670623D01*
X124586382Y-82689308D01*
X124622650Y-82716627D01*
X124698835Y-82766992D01*
X124778356Y-82810285D01*
X124861776Y-82846736D01*
X124949658Y-82876578D01*
X125042565Y-82900042D01*
X125141060Y-82917359D01*
X125145444Y-82917952D01*
X125154873Y-82919052D01*
X125165541Y-82920036D01*
X125177972Y-82920911D01*
X125192684Y-82921688D01*
X125210200Y-82922374D01*
X125231040Y-82922979D01*
X125255726Y-82923512D01*
X125284777Y-82923983D01*
X125318715Y-82924399D01*
X125358062Y-82924771D01*
X125403337Y-82925107D01*
X125455062Y-82925416D01*
X125513757Y-82925708D01*
X125579944Y-82925991D01*
X125654144Y-82926274D01*
X126116027Y-82927964D01*
X126114954Y-81593294D01*
X126113880Y-80258624D01*
X125734139Y-80257353D01*
X125727549Y-80257332D01*
X125643168Y-80257130D01*
X125566801Y-80257105D01*
X125497965Y-80257267D01*
X125436177Y-80257629D01*
X125380954Y-80258201D01*
X125331813Y-80258993D01*
X125288273Y-80260019D01*
X125249849Y-80261288D01*
X125216060Y-80262813D01*
X125186422Y-80264603D01*
X125160454Y-80266671D01*
X125137672Y-80269028D01*
X125117593Y-80271684D01*
X125094700Y-80275303D01*
X124997156Y-80295725D01*
X124903603Y-80323676D01*
X124813963Y-80359184D01*
X124728160Y-80402281D01*
X124646116Y-80452995D01*
X124586609Y-80496810D01*
X124517276Y-80557255D01*
X124452913Y-80624240D01*
X124393718Y-80697412D01*
X124339890Y-80776415D01*
X124291629Y-80860895D01*
X124249133Y-80950498D01*
X124212602Y-81044869D01*
X124182235Y-81143654D01*
X124158229Y-81246498D01*
X124140786Y-81353047D01*
X124137858Y-81377375D01*
X124131427Y-81451799D01*
X124127933Y-81531012D01*
X124127365Y-81612625D01*
X123733359Y-81612625D01*
X123733266Y-81594118D01*
X123733318Y-81550484D01*
X123733688Y-81509639D01*
X123734492Y-81474246D01*
X123735842Y-81442700D01*
X123737851Y-81413395D01*
X123740630Y-81384725D01*
X123744291Y-81355085D01*
X123748946Y-81322869D01*
X123754706Y-81286472D01*
X123763857Y-81235588D01*
X123789155Y-81127749D01*
X123821833Y-81023023D01*
X123861657Y-80921838D01*
X123908389Y-80824620D01*
X123961793Y-80731798D01*
X124021634Y-80643798D01*
X124087676Y-80561047D01*
X124159681Y-80483974D01*
X124237414Y-80413005D01*
X124279238Y-80379207D01*
X124366623Y-80316717D01*
X124459479Y-80260495D01*
X124557415Y-80210714D01*
X124660037Y-80167548D01*
X124766954Y-80131169D01*
X124877772Y-80101750D01*
X124992101Y-80079467D01*
X124997818Y-80078544D01*
X125012509Y-80076164D01*
X125026167Y-80073981D01*
X125039190Y-80071985D01*
X125051978Y-80070168D01*
X125064929Y-80068520D01*
X125078442Y-80067032D01*
X125092915Y-80065695D01*
X125108746Y-80064501D01*
X125126335Y-80063439D01*
X125146080Y-80062501D01*
X125168379Y-80061678D01*
X125193631Y-80060960D01*
X125222236Y-80060339D01*
X125254590Y-80059805D01*
X125291094Y-80059349D01*
X125332145Y-80058963D01*
X125378142Y-80058637D01*
X125429484Y-80058362D01*
X125486569Y-80058129D01*
X125549796Y-80057929D01*
X125619563Y-80057752D01*
X125696270Y-80057590D01*
X125780315Y-80057434D01*
X125872095Y-80057274D01*
X125972011Y-80057101D01*
X126794428Y-80055665D01*
X126794428Y-80114997D01*
X126794428Y-80174330D01*
X126722960Y-80176490D01*
X126693120Y-80177619D01*
X126669989Y-80179096D01*
X126651879Y-80181115D01*
X126637033Y-80183873D01*
X126623693Y-80187565D01*
X126594292Y-80199237D01*
X126561815Y-80217140D01*
X126532063Y-80238658D01*
X126506964Y-80262374D01*
X126488447Y-80286873D01*
X126485821Y-80291027D01*
X126483361Y-80294605D01*
X126481072Y-80297881D01*
X126478948Y-80301152D01*
X126476982Y-80304712D01*
X126475170Y-80308854D01*
X126473505Y-80313874D01*
X126471982Y-80320066D01*
X126470594Y-80327725D01*
X126469336Y-80337144D01*
X126468202Y-80348618D01*
X126467185Y-80362443D01*
X126466281Y-80378911D01*
X126465484Y-80398319D01*
X126464787Y-80420959D01*
X126464184Y-80447127D01*
X126463670Y-80477117D01*
X126463240Y-80511224D01*
X126462886Y-80549742D01*
X126462604Y-80592965D01*
X126462387Y-80641189D01*
X126462229Y-80694706D01*
X126462126Y-80753813D01*
X126462070Y-80818803D01*
X126462056Y-80889971D01*
X126462078Y-80967611D01*
X126462131Y-81052017D01*
X126462208Y-81143485D01*
X126462304Y-81242309D01*
X126462412Y-81348783D01*
X126462528Y-81463201D01*
X126462644Y-81585858D01*
X126463754Y-82810144D01*
X126473643Y-82837878D01*
X126484928Y-82865028D01*
X126505707Y-82901870D01*
X126525632Y-82927964D01*
X126530748Y-82934664D01*
G37*
G36*
X127973764Y-81722323D02*
G01*
X127964131Y-81876813D01*
X127947158Y-82027163D01*
X127922801Y-82173563D01*
X127891019Y-82316196D01*
X127851770Y-82455252D01*
X127805011Y-82590915D01*
X127750698Y-82723373D01*
X127688791Y-82852811D01*
X127665060Y-82897900D01*
X127594162Y-83020711D01*
X127517224Y-83137508D01*
X127434319Y-83248226D01*
X127345523Y-83352799D01*
X127250908Y-83451162D01*
X127150550Y-83543249D01*
X127044521Y-83628997D01*
X126932897Y-83708338D01*
X126815750Y-83781209D01*
X126693156Y-83847544D01*
X126565187Y-83907278D01*
X126431918Y-83960346D01*
X126381922Y-83977977D01*
X126251039Y-84018269D01*
X126114997Y-84051995D01*
X125974072Y-84079099D01*
X125828538Y-84099525D01*
X125678671Y-84113218D01*
X125632047Y-84115700D01*
X125572255Y-84117399D01*
X125507436Y-84117919D01*
X125439413Y-84117306D01*
X125370008Y-84115605D01*
X125301046Y-84112864D01*
X125234347Y-84109129D01*
X125171736Y-84104447D01*
X125115034Y-84098863D01*
X124983852Y-84080739D01*
X124842569Y-84053682D01*
X124704570Y-84019291D01*
X124570117Y-83977711D01*
X124439473Y-83929088D01*
X124312903Y-83873566D01*
X124190670Y-83811289D01*
X124073036Y-83742404D01*
X123960266Y-83667055D01*
X123852623Y-83585386D01*
X123750370Y-83497543D01*
X123653770Y-83403671D01*
X123563088Y-83303915D01*
X123478586Y-83198419D01*
X123426579Y-83126342D01*
X123349452Y-83007687D01*
X123279186Y-82884238D01*
X123215932Y-82756362D01*
X123159841Y-82624428D01*
X123111066Y-82488802D01*
X123069759Y-82349854D01*
X123036070Y-82207951D01*
X123010153Y-82063462D01*
X122997539Y-81969378D01*
X122984439Y-81831197D01*
X122977310Y-81691124D01*
X122976632Y-81611967D01*
X123609409Y-81611967D01*
X123612545Y-81742008D01*
X123620395Y-81870231D01*
X123632963Y-81994997D01*
X123650253Y-82114663D01*
X123673790Y-82236739D01*
X123706241Y-82369203D01*
X123745166Y-82498093D01*
X123790355Y-82622879D01*
X123841597Y-82743031D01*
X123898682Y-82858017D01*
X123961398Y-82967306D01*
X124029536Y-83070368D01*
X124031719Y-83073439D01*
X124105872Y-83170400D01*
X124185635Y-83261123D01*
X124270759Y-83345423D01*
X124360993Y-83423111D01*
X124456087Y-83494001D01*
X124555791Y-83557906D01*
X124659855Y-83614639D01*
X124768028Y-83664013D01*
X124880060Y-83705841D01*
X124931913Y-83722248D01*
X125025995Y-83747468D01*
X125122776Y-83767541D01*
X125223826Y-83782771D01*
X125330717Y-83793464D01*
X125358301Y-83795126D01*
X125396534Y-83796453D01*
X125439310Y-83797138D01*
X125484496Y-83797196D01*
X125529957Y-83796641D01*
X125573563Y-83795484D01*
X125613178Y-83793742D01*
X125646671Y-83791427D01*
X125718299Y-83783894D01*
X125839827Y-83764937D01*
X125957391Y-83738486D01*
X126071241Y-83704443D01*
X126181626Y-83662709D01*
X126288792Y-83613186D01*
X126392989Y-83555776D01*
X126494465Y-83490381D01*
X126593468Y-83416903D01*
X126597340Y-83413800D01*
X126621520Y-83393330D01*
X126649738Y-83367950D01*
X126680682Y-83338962D01*
X126713041Y-83307667D01*
X126745504Y-83275367D01*
X126776759Y-83243364D01*
X126805494Y-83212959D01*
X126830398Y-83185454D01*
X126850159Y-83162151D01*
X126870767Y-83136147D01*
X126946219Y-83032302D01*
X127015069Y-82923083D01*
X127077296Y-82808539D01*
X127132881Y-82688721D01*
X127181804Y-82563678D01*
X127224044Y-82433461D01*
X127259583Y-82298119D01*
X127288399Y-82157702D01*
X127310473Y-82012260D01*
X127311132Y-82007031D01*
X127316777Y-81960303D01*
X127321443Y-81917303D01*
X127325213Y-81876498D01*
X127328174Y-81836357D01*
X127330410Y-81795348D01*
X127332006Y-81751937D01*
X127333048Y-81704595D01*
X127333620Y-81651788D01*
X127333807Y-81591985D01*
X127333728Y-81547593D01*
X127333240Y-81490042D01*
X127332237Y-81438465D01*
X127330636Y-81391360D01*
X127328355Y-81347223D01*
X127325313Y-81304550D01*
X127321427Y-81261837D01*
X127316615Y-81217582D01*
X127310796Y-81170280D01*
X127306287Y-81136693D01*
X127282352Y-80991528D01*
X127251889Y-80851835D01*
X127214883Y-80717575D01*
X127171319Y-80588710D01*
X127121182Y-80465200D01*
X127064456Y-80347008D01*
X127001125Y-80234095D01*
X126931175Y-80126423D01*
X126854590Y-80023952D01*
X126850369Y-80018713D01*
X126809848Y-79971406D01*
X126763563Y-79921944D01*
X126713164Y-79871865D01*
X126660300Y-79822709D01*
X126606621Y-79776017D01*
X126553777Y-79733328D01*
X126503417Y-79696182D01*
X126429489Y-79647501D01*
X126335195Y-79592810D01*
X126237614Y-79543824D01*
X126138124Y-79501176D01*
X126038108Y-79465500D01*
X125938943Y-79437426D01*
X125913698Y-79431430D01*
X125794745Y-79407986D01*
X125674605Y-79392028D01*
X125553911Y-79383488D01*
X125433292Y-79382300D01*
X125313383Y-79388397D01*
X125194814Y-79401712D01*
X125078218Y-79422179D01*
X124964227Y-79449730D01*
X124853472Y-79484299D01*
X124746585Y-79525820D01*
X124644199Y-79574224D01*
X124581860Y-79607895D01*
X124503936Y-79654521D01*
X124430958Y-79703998D01*
X124361102Y-79757665D01*
X124292545Y-79816859D01*
X124223463Y-79882919D01*
X124202885Y-79903675D01*
X124164969Y-79943192D01*
X124131327Y-79980315D01*
X124100309Y-80016961D01*
X124070264Y-80055046D01*
X124039543Y-80096487D01*
X123987088Y-80172905D01*
X123920311Y-80282932D01*
X123859711Y-80398623D01*
X123805378Y-80519759D01*
X123757400Y-80646121D01*
X123715865Y-80777491D01*
X123680863Y-80913648D01*
X123652481Y-81054374D01*
X123643944Y-81106472D01*
X123628255Y-81227363D01*
X123617268Y-81353004D01*
X123610985Y-81481752D01*
X123609409Y-81611967D01*
X122976632Y-81611967D01*
X122976104Y-81550343D01*
X122980775Y-81410039D01*
X122991275Y-81271398D01*
X123007557Y-81135605D01*
X123029575Y-81003845D01*
X123057280Y-80877303D01*
X123080658Y-80789809D01*
X123120396Y-80663953D01*
X123166723Y-80539792D01*
X123219171Y-80418318D01*
X123277272Y-80300525D01*
X123340557Y-80187404D01*
X123408559Y-80079949D01*
X123480810Y-79979151D01*
X123504458Y-79948728D01*
X123593882Y-79842429D01*
X123688998Y-79742429D01*
X123789643Y-79648834D01*
X123895651Y-79561749D01*
X124006860Y-79481282D01*
X124123104Y-79407539D01*
X124244220Y-79340624D01*
X124370043Y-79280645D01*
X124500411Y-79227707D01*
X124635157Y-79181917D01*
X124774119Y-79143380D01*
X124879849Y-79119611D01*
X125020949Y-79094789D01*
X125165238Y-79076834D01*
X125311686Y-79065746D01*
X125459258Y-79061525D01*
X125606924Y-79064169D01*
X125753652Y-79073680D01*
X125898408Y-79090059D01*
X126040162Y-79113303D01*
X126177882Y-79143414D01*
X126225670Y-79155736D01*
X126363657Y-79196895D01*
X126497146Y-79245165D01*
X126625983Y-79300427D01*
X126750016Y-79362560D01*
X126869093Y-79431444D01*
X126983062Y-79506960D01*
X127091770Y-79588987D01*
X127195064Y-79677406D01*
X127292792Y-79772097D01*
X127384802Y-79872939D01*
X127470941Y-79979813D01*
X127551056Y-80092599D01*
X127624996Y-80211176D01*
X127692608Y-80335425D01*
X127749849Y-80455798D01*
X127803480Y-80585999D01*
X127849708Y-80718775D01*
X127888616Y-80854489D01*
X127920284Y-80993504D01*
X127944796Y-81136185D01*
X127962234Y-81282894D01*
X127972680Y-81433995D01*
X127976215Y-81589852D01*
X127976176Y-81591985D01*
X127973764Y-81722323D01*
G37*
%LPC*%
D14*
X136652000Y-76843128D03*
X136652000Y-74303128D03*
X134112000Y-76843128D03*
X134112000Y-74303128D03*
X131572000Y-76843128D03*
X131572000Y-74303128D03*
X129032000Y-76843128D03*
X129032000Y-74303128D03*
X126492000Y-76843128D03*
X126492000Y-74303128D03*
X123952000Y-76843128D03*
X123952000Y-74303128D03*
X121412000Y-76843128D03*
X121412000Y-74303128D03*
X118872000Y-76843128D03*
X118872000Y-74303128D03*
X116332000Y-76843128D03*
X116332000Y-74303128D03*
X113792000Y-76843128D03*
X113792000Y-74303128D03*
D15*
X127762000Y-92964000D03*
X127762000Y-90424000D03*
X125222000Y-92964000D03*
X125222000Y-90424000D03*
X122682000Y-92964000D03*
X122682000Y-90424000D03*
%LPD*%
M02*
