M48
; DRILL file {KiCad 8.0.2-1} date 2024-12-21T19:47:04+0100
; FORMAT={-:-/ absolute / metric / decimal}
; #@! TF.CreationDate,2024-12-21T19:47:04+01:00
; #@! TF.GenerationSoftware,Kicad,Pcbnew,8.0.2-1
; #@! TF.FileFunction,Plated,1,2,PTH
FMAT,2
METRIC
; #@! TA.AperFunction,Plated,PTH,ComponentDrill
T1C1.016
; #@! TA.AperFunction,Plated,PTH,ComponentDrill
T2C1.100
%
G90
G05
T1
X113.792Y-74.303
X113.792Y-76.843
X116.332Y-74.303
X116.332Y-76.843
X118.872Y-74.303
X118.872Y-76.843
X121.412Y-74.303
X121.412Y-76.843
X123.952Y-74.303
X123.952Y-76.843
X126.492Y-74.303
X126.492Y-76.843
X129.032Y-74.303
X129.032Y-76.843
X131.572Y-74.303
X131.572Y-76.843
X134.112Y-74.303
X134.112Y-76.843
X136.652Y-74.303
X136.652Y-76.843
T2
X122.682Y-90.424
X122.682Y-92.964
X125.222Y-90.424
X125.222Y-92.964
X127.762Y-90.424
X127.762Y-92.964
M30
