%TF.GenerationSoftware,KiCad,Pcbnew,8.0.2-1*%
%TF.CreationDate,2024-12-21T19:47:06+01:00*%
%TF.ProjectId,ten_to_six,74656e5f-746f-45f7-9369-782e6b696361,rev?*%
%TF.SameCoordinates,Original*%
%TF.FileFunction,Drillmap*%
%TF.FilePolarity,Positive*%
%FSLAX45Y45*%
G04 Gerber Fmt 4.5, Leading zero omitted, Abs format (unit mm)*
G04 Created by KiCad (PCBNEW 8.0.2-1) date 2024-12-21 19:47:06*
%MOMM*%
%LPD*%
G01*
G04 APERTURE LIST*
%ADD10C,0.050000*%
%ADD11C,0.200000*%
G04 APERTURE END LIST*
D10*
X14097000Y-8407400D02*
X14097000Y-7239000D01*
X14097000Y-8407400D02*
X13385800Y-9728200D01*
X13385800Y-9728200D02*
X11658600Y-9728200D01*
X10947400Y-8407400D02*
X10947400Y-7239000D01*
X11658600Y-9728200D02*
X10947400Y-8407400D01*
X10947400Y-7239000D02*
X14097000Y-7239000D01*
D11*
X11205677Y-10042184D02*
X11205677Y-9842184D01*
X11205677Y-9842184D02*
X11253296Y-9842184D01*
X11253296Y-9842184D02*
X11281867Y-9851708D01*
X11281867Y-9851708D02*
X11300915Y-9870755D01*
X11300915Y-9870755D02*
X11310439Y-9889803D01*
X11310439Y-9889803D02*
X11319962Y-9927898D01*
X11319962Y-9927898D02*
X11319962Y-9956470D01*
X11319962Y-9956470D02*
X11310439Y-9994565D01*
X11310439Y-9994565D02*
X11300915Y-10013612D01*
X11300915Y-10013612D02*
X11281867Y-10032660D01*
X11281867Y-10032660D02*
X11253296Y-10042184D01*
X11253296Y-10042184D02*
X11205677Y-10042184D01*
X11405677Y-10042184D02*
X11405677Y-9908850D01*
X11405677Y-9946946D02*
X11415201Y-9927898D01*
X11415201Y-9927898D02*
X11424724Y-9918374D01*
X11424724Y-9918374D02*
X11443772Y-9908850D01*
X11443772Y-9908850D02*
X11462820Y-9908850D01*
X11529486Y-10042184D02*
X11529486Y-9908850D01*
X11529486Y-9842184D02*
X11519962Y-9851708D01*
X11519962Y-9851708D02*
X11529486Y-9861231D01*
X11529486Y-9861231D02*
X11539010Y-9851708D01*
X11539010Y-9851708D02*
X11529486Y-9842184D01*
X11529486Y-9842184D02*
X11529486Y-9861231D01*
X11653296Y-10042184D02*
X11634248Y-10032660D01*
X11634248Y-10032660D02*
X11624724Y-10013612D01*
X11624724Y-10013612D02*
X11624724Y-9842184D01*
X11758058Y-10042184D02*
X11739010Y-10032660D01*
X11739010Y-10032660D02*
X11729486Y-10013612D01*
X11729486Y-10013612D02*
X11729486Y-9842184D01*
X11986629Y-10042184D02*
X11986629Y-9842184D01*
X11986629Y-9842184D02*
X12053296Y-9985041D01*
X12053296Y-9985041D02*
X12119962Y-9842184D01*
X12119962Y-9842184D02*
X12119962Y-10042184D01*
X12300915Y-10042184D02*
X12300915Y-9937422D01*
X12300915Y-9937422D02*
X12291391Y-9918374D01*
X12291391Y-9918374D02*
X12272343Y-9908850D01*
X12272343Y-9908850D02*
X12234248Y-9908850D01*
X12234248Y-9908850D02*
X12215201Y-9918374D01*
X12300915Y-10032660D02*
X12281867Y-10042184D01*
X12281867Y-10042184D02*
X12234248Y-10042184D01*
X12234248Y-10042184D02*
X12215201Y-10032660D01*
X12215201Y-10032660D02*
X12205677Y-10013612D01*
X12205677Y-10013612D02*
X12205677Y-9994565D01*
X12205677Y-9994565D02*
X12215201Y-9975517D01*
X12215201Y-9975517D02*
X12234248Y-9965993D01*
X12234248Y-9965993D02*
X12281867Y-9965993D01*
X12281867Y-9965993D02*
X12300915Y-9956470D01*
X12396153Y-9908850D02*
X12396153Y-10108850D01*
X12396153Y-9918374D02*
X12415201Y-9908850D01*
X12415201Y-9908850D02*
X12453296Y-9908850D01*
X12453296Y-9908850D02*
X12472343Y-9918374D01*
X12472343Y-9918374D02*
X12481867Y-9927898D01*
X12481867Y-9927898D02*
X12491391Y-9946946D01*
X12491391Y-9946946D02*
X12491391Y-10004089D01*
X12491391Y-10004089D02*
X12481867Y-10023136D01*
X12481867Y-10023136D02*
X12472343Y-10032660D01*
X12472343Y-10032660D02*
X12453296Y-10042184D01*
X12453296Y-10042184D02*
X12415201Y-10042184D01*
X12415201Y-10042184D02*
X12396153Y-10032660D01*
X12577105Y-10023136D02*
X12586629Y-10032660D01*
X12586629Y-10032660D02*
X12577105Y-10042184D01*
X12577105Y-10042184D02*
X12567582Y-10032660D01*
X12567582Y-10032660D02*
X12577105Y-10023136D01*
X12577105Y-10023136D02*
X12577105Y-10042184D01*
X12577105Y-9918374D02*
X12586629Y-9927898D01*
X12586629Y-9927898D02*
X12577105Y-9937422D01*
X12577105Y-9937422D02*
X12567582Y-9927898D01*
X12567582Y-9927898D02*
X12577105Y-9918374D01*
X12577105Y-9918374D02*
X12577105Y-9937422D01*
M02*
