G04 #@! TF.GenerationSoftware,KiCad,Pcbnew,8.0.2-1*
G04 #@! TF.CreationDate,2024-12-21T19:46:59+01:00*
G04 #@! TF.ProjectId,ten_to_six,74656e5f-746f-45f7-9369-782e6b696361,rev?*
G04 #@! TF.SameCoordinates,Original*
G04 #@! TF.FileFunction,Legend,Top*
G04 #@! TF.FilePolarity,Positive*
%FSLAX46Y46*%
G04 Gerber Fmt 4.6, Leading zero omitted, Abs format (unit mm)*
G04 Created by KiCad (PCBNEW 8.0.2-1) date 2024-12-21 19:46:59*
%MOMM*%
%LPD*%
G01*
G04 APERTURE LIST*
%ADD10C,0.100000*%
%ADD11C,0.200000*%
%ADD12C,0.150000*%
%ADD13C,0.508000*%
%ADD14C,1.524000*%
%ADD15C,1.854000*%
G04 APERTURE END LIST*
D10*
X116586000Y-78359000D02*
X133858000Y-78359000D01*
X133858000Y-86741000D01*
X116586000Y-86741000D01*
X116586000Y-78359000D01*
D11*
X127375386Y-95558619D02*
X128318195Y-96030024D01*
X128318195Y-96030024D02*
X127846790Y-95087215D01*
X129126317Y-95087215D02*
X129126317Y-95154558D01*
X129126317Y-95154558D02*
X129058973Y-95289245D01*
X129058973Y-95289245D02*
X128991630Y-95356589D01*
X128991630Y-95356589D02*
X128856943Y-95423932D01*
X128856943Y-95423932D02*
X128722256Y-95423932D01*
X128722256Y-95423932D02*
X128621241Y-95390260D01*
X128621241Y-95390260D02*
X128452882Y-95289245D01*
X128452882Y-95289245D02*
X128351867Y-95188230D01*
X128351867Y-95188230D02*
X128250851Y-95019871D01*
X128250851Y-95019871D02*
X128217179Y-94918856D01*
X128217179Y-94918856D02*
X128217179Y-94784169D01*
X128217179Y-94784169D02*
X128284523Y-94649482D01*
X128284523Y-94649482D02*
X128351867Y-94582138D01*
X128351867Y-94582138D02*
X128486554Y-94514795D01*
X128486554Y-94514795D02*
X128553897Y-94514795D01*
X129833424Y-94380108D02*
X129833424Y-94447451D01*
X129833424Y-94447451D02*
X129766080Y-94582138D01*
X129766080Y-94582138D02*
X129698737Y-94649482D01*
X129698737Y-94649482D02*
X129564050Y-94716825D01*
X129564050Y-94716825D02*
X129429363Y-94716825D01*
X129429363Y-94716825D02*
X129328347Y-94683154D01*
X129328347Y-94683154D02*
X129159989Y-94582138D01*
X129159989Y-94582138D02*
X129058973Y-94481123D01*
X129058973Y-94481123D02*
X128957958Y-94312764D01*
X128957958Y-94312764D02*
X128924286Y-94211749D01*
X128924286Y-94211749D02*
X128924286Y-94077062D01*
X128924286Y-94077062D02*
X128991630Y-93942375D01*
X128991630Y-93942375D02*
X129058973Y-93875032D01*
X129058973Y-93875032D02*
X129193660Y-93807688D01*
X129193660Y-93807688D02*
X129261004Y-93807688D01*
D10*
X117096265Y-79633928D02*
X117572455Y-79633928D01*
X117001027Y-79919643D02*
X117334360Y-78919643D01*
X117334360Y-78919643D02*
X117667693Y-79919643D01*
X118572455Y-79919643D02*
X118239122Y-79443452D01*
X118001027Y-79919643D02*
X118001027Y-78919643D01*
X118001027Y-78919643D02*
X118381979Y-78919643D01*
X118381979Y-78919643D02*
X118477217Y-78967262D01*
X118477217Y-78967262D02*
X118524836Y-79014881D01*
X118524836Y-79014881D02*
X118572455Y-79110119D01*
X118572455Y-79110119D02*
X118572455Y-79252976D01*
X118572455Y-79252976D02*
X118524836Y-79348214D01*
X118524836Y-79348214D02*
X118477217Y-79395833D01*
X118477217Y-79395833D02*
X118381979Y-79443452D01*
X118381979Y-79443452D02*
X118001027Y-79443452D01*
X119001027Y-79919643D02*
X119001027Y-78919643D01*
X119001027Y-78919643D02*
X119334360Y-79633928D01*
X119334360Y-79633928D02*
X119667693Y-78919643D01*
X119667693Y-78919643D02*
X119667693Y-79919643D01*
X120858170Y-79014881D02*
X120905789Y-78967262D01*
X120905789Y-78967262D02*
X121001027Y-78919643D01*
X121001027Y-78919643D02*
X121239122Y-78919643D01*
X121239122Y-78919643D02*
X121334360Y-78967262D01*
X121334360Y-78967262D02*
X121381979Y-79014881D01*
X121381979Y-79014881D02*
X121429598Y-79110119D01*
X121429598Y-79110119D02*
X121429598Y-79205357D01*
X121429598Y-79205357D02*
X121381979Y-79348214D01*
X121381979Y-79348214D02*
X120810551Y-79919643D01*
X120810551Y-79919643D02*
X121429598Y-79919643D01*
X122048646Y-78919643D02*
X122143884Y-78919643D01*
X122143884Y-78919643D02*
X122239122Y-78967262D01*
X122239122Y-78967262D02*
X122286741Y-79014881D01*
X122286741Y-79014881D02*
X122334360Y-79110119D01*
X122334360Y-79110119D02*
X122381979Y-79300595D01*
X122381979Y-79300595D02*
X122381979Y-79538690D01*
X122381979Y-79538690D02*
X122334360Y-79729166D01*
X122334360Y-79729166D02*
X122286741Y-79824404D01*
X122286741Y-79824404D02*
X122239122Y-79872024D01*
X122239122Y-79872024D02*
X122143884Y-79919643D01*
X122143884Y-79919643D02*
X122048646Y-79919643D01*
X122048646Y-79919643D02*
X121953408Y-79872024D01*
X121953408Y-79872024D02*
X121905789Y-79824404D01*
X121905789Y-79824404D02*
X121858170Y-79729166D01*
X121858170Y-79729166D02*
X121810551Y-79538690D01*
X121810551Y-79538690D02*
X121810551Y-79300595D01*
X121810551Y-79300595D02*
X121858170Y-79110119D01*
X121858170Y-79110119D02*
X121905789Y-79014881D01*
X121905789Y-79014881D02*
X121953408Y-78967262D01*
X121953408Y-78967262D02*
X122048646Y-78919643D01*
X122810551Y-79538690D02*
X123572456Y-79538690D01*
X124048646Y-79252976D02*
X124048646Y-80252976D01*
X124048646Y-79300595D02*
X124143884Y-79252976D01*
X124143884Y-79252976D02*
X124334360Y-79252976D01*
X124334360Y-79252976D02*
X124429598Y-79300595D01*
X124429598Y-79300595D02*
X124477217Y-79348214D01*
X124477217Y-79348214D02*
X124524836Y-79443452D01*
X124524836Y-79443452D02*
X124524836Y-79729166D01*
X124524836Y-79729166D02*
X124477217Y-79824404D01*
X124477217Y-79824404D02*
X124429598Y-79872024D01*
X124429598Y-79872024D02*
X124334360Y-79919643D01*
X124334360Y-79919643D02*
X124143884Y-79919643D01*
X124143884Y-79919643D02*
X124048646Y-79872024D01*
X124953408Y-79919643D02*
X124953408Y-79252976D01*
X124953408Y-78919643D02*
X124905789Y-78967262D01*
X124905789Y-78967262D02*
X124953408Y-79014881D01*
X124953408Y-79014881D02*
X125001027Y-78967262D01*
X125001027Y-78967262D02*
X124953408Y-78919643D01*
X124953408Y-78919643D02*
X124953408Y-79014881D01*
X125429598Y-79252976D02*
X125429598Y-79919643D01*
X125429598Y-79348214D02*
X125477217Y-79300595D01*
X125477217Y-79300595D02*
X125572455Y-79252976D01*
X125572455Y-79252976D02*
X125715312Y-79252976D01*
X125715312Y-79252976D02*
X125810550Y-79300595D01*
X125810550Y-79300595D02*
X125858169Y-79395833D01*
X125858169Y-79395833D02*
X125858169Y-79919643D01*
X126953408Y-79252976D02*
X127334360Y-79252976D01*
X127096265Y-78919643D02*
X127096265Y-79776785D01*
X127096265Y-79776785D02*
X127143884Y-79872024D01*
X127143884Y-79872024D02*
X127239122Y-79919643D01*
X127239122Y-79919643D02*
X127334360Y-79919643D01*
X127810551Y-79919643D02*
X127715313Y-79872024D01*
X127715313Y-79872024D02*
X127667694Y-79824404D01*
X127667694Y-79824404D02*
X127620075Y-79729166D01*
X127620075Y-79729166D02*
X127620075Y-79443452D01*
X127620075Y-79443452D02*
X127667694Y-79348214D01*
X127667694Y-79348214D02*
X127715313Y-79300595D01*
X127715313Y-79300595D02*
X127810551Y-79252976D01*
X127810551Y-79252976D02*
X127953408Y-79252976D01*
X127953408Y-79252976D02*
X128048646Y-79300595D01*
X128048646Y-79300595D02*
X128096265Y-79348214D01*
X128096265Y-79348214D02*
X128143884Y-79443452D01*
X128143884Y-79443452D02*
X128143884Y-79729166D01*
X128143884Y-79729166D02*
X128096265Y-79824404D01*
X128096265Y-79824404D02*
X128048646Y-79872024D01*
X128048646Y-79872024D02*
X127953408Y-79919643D01*
X127953408Y-79919643D02*
X127810551Y-79919643D01*
X129762932Y-78919643D02*
X129572456Y-78919643D01*
X129572456Y-78919643D02*
X129477218Y-78967262D01*
X129477218Y-78967262D02*
X129429599Y-79014881D01*
X129429599Y-79014881D02*
X129334361Y-79157738D01*
X129334361Y-79157738D02*
X129286742Y-79348214D01*
X129286742Y-79348214D02*
X129286742Y-79729166D01*
X129286742Y-79729166D02*
X129334361Y-79824404D01*
X129334361Y-79824404D02*
X129381980Y-79872024D01*
X129381980Y-79872024D02*
X129477218Y-79919643D01*
X129477218Y-79919643D02*
X129667694Y-79919643D01*
X129667694Y-79919643D02*
X129762932Y-79872024D01*
X129762932Y-79872024D02*
X129810551Y-79824404D01*
X129810551Y-79824404D02*
X129858170Y-79729166D01*
X129858170Y-79729166D02*
X129858170Y-79491071D01*
X129858170Y-79491071D02*
X129810551Y-79395833D01*
X129810551Y-79395833D02*
X129762932Y-79348214D01*
X129762932Y-79348214D02*
X129667694Y-79300595D01*
X129667694Y-79300595D02*
X129477218Y-79300595D01*
X129477218Y-79300595D02*
X129381980Y-79348214D01*
X129381980Y-79348214D02*
X129334361Y-79395833D01*
X129334361Y-79395833D02*
X129286742Y-79491071D01*
X130286742Y-79538690D02*
X131048647Y-79538690D01*
X131524837Y-79252976D02*
X131524837Y-80252976D01*
X131524837Y-79300595D02*
X131620075Y-79252976D01*
X131620075Y-79252976D02*
X131810551Y-79252976D01*
X131810551Y-79252976D02*
X131905789Y-79300595D01*
X131905789Y-79300595D02*
X131953408Y-79348214D01*
X131953408Y-79348214D02*
X132001027Y-79443452D01*
X132001027Y-79443452D02*
X132001027Y-79729166D01*
X132001027Y-79729166D02*
X131953408Y-79824404D01*
X131953408Y-79824404D02*
X131905789Y-79872024D01*
X131905789Y-79872024D02*
X131810551Y-79919643D01*
X131810551Y-79919643D02*
X131620075Y-79919643D01*
X131620075Y-79919643D02*
X131524837Y-79872024D01*
X132429599Y-79919643D02*
X132429599Y-79252976D01*
X132429599Y-78919643D02*
X132381980Y-78967262D01*
X132381980Y-78967262D02*
X132429599Y-79014881D01*
X132429599Y-79014881D02*
X132477218Y-78967262D01*
X132477218Y-78967262D02*
X132429599Y-78919643D01*
X132429599Y-78919643D02*
X132429599Y-79014881D01*
X132905789Y-79252976D02*
X132905789Y-79919643D01*
X132905789Y-79348214D02*
X132953408Y-79300595D01*
X132953408Y-79300595D02*
X133048646Y-79252976D01*
X133048646Y-79252976D02*
X133191503Y-79252976D01*
X133191503Y-79252976D02*
X133286741Y-79300595D01*
X133286741Y-79300595D02*
X133334360Y-79395833D01*
X133334360Y-79395833D02*
X133334360Y-79919643D01*
X117334360Y-82139531D02*
X117524836Y-82139531D01*
X117524836Y-82139531D02*
X117620074Y-82187150D01*
X117620074Y-82187150D02*
X117715312Y-82282388D01*
X117715312Y-82282388D02*
X117762931Y-82472864D01*
X117762931Y-82472864D02*
X117762931Y-82806197D01*
X117762931Y-82806197D02*
X117715312Y-82996673D01*
X117715312Y-82996673D02*
X117620074Y-83091912D01*
X117620074Y-83091912D02*
X117524836Y-83139531D01*
X117524836Y-83139531D02*
X117334360Y-83139531D01*
X117334360Y-83139531D02*
X117239122Y-83091912D01*
X117239122Y-83091912D02*
X117143884Y-82996673D01*
X117143884Y-82996673D02*
X117096265Y-82806197D01*
X117096265Y-82806197D02*
X117096265Y-82472864D01*
X117096265Y-82472864D02*
X117143884Y-82282388D01*
X117143884Y-82282388D02*
X117239122Y-82187150D01*
X117239122Y-82187150D02*
X117334360Y-82139531D01*
X118334360Y-83139531D02*
X118239122Y-83091912D01*
X118239122Y-83091912D02*
X118191503Y-82996673D01*
X118191503Y-82996673D02*
X118191503Y-82139531D01*
X119143884Y-83139531D02*
X119143884Y-82615721D01*
X119143884Y-82615721D02*
X119096265Y-82520483D01*
X119096265Y-82520483D02*
X119001027Y-82472864D01*
X119001027Y-82472864D02*
X118810551Y-82472864D01*
X118810551Y-82472864D02*
X118715313Y-82520483D01*
X119143884Y-83091912D02*
X119048646Y-83139531D01*
X119048646Y-83139531D02*
X118810551Y-83139531D01*
X118810551Y-83139531D02*
X118715313Y-83091912D01*
X118715313Y-83091912D02*
X118667694Y-82996673D01*
X118667694Y-82996673D02*
X118667694Y-82901435D01*
X118667694Y-82901435D02*
X118715313Y-82806197D01*
X118715313Y-82806197D02*
X118810551Y-82758578D01*
X118810551Y-82758578D02*
X119048646Y-82758578D01*
X119048646Y-82758578D02*
X119143884Y-82710959D01*
X119477218Y-82472864D02*
X119858170Y-82472864D01*
X119620075Y-83139531D02*
X119620075Y-82282388D01*
X119620075Y-82282388D02*
X119667694Y-82187150D01*
X119667694Y-82187150D02*
X119762932Y-82139531D01*
X119762932Y-82139531D02*
X119858170Y-82139531D01*
X120953409Y-83139531D02*
X120953409Y-82139531D01*
X120953409Y-82139531D02*
X121191504Y-82139531D01*
X121191504Y-82139531D02*
X121334361Y-82187150D01*
X121334361Y-82187150D02*
X121429599Y-82282388D01*
X121429599Y-82282388D02*
X121477218Y-82377626D01*
X121477218Y-82377626D02*
X121524837Y-82568102D01*
X121524837Y-82568102D02*
X121524837Y-82710959D01*
X121524837Y-82710959D02*
X121477218Y-82901435D01*
X121477218Y-82901435D02*
X121429599Y-82996673D01*
X121429599Y-82996673D02*
X121334361Y-83091912D01*
X121334361Y-83091912D02*
X121191504Y-83139531D01*
X121191504Y-83139531D02*
X120953409Y-83139531D01*
X121953409Y-83139531D02*
X121953409Y-82472864D01*
X121953409Y-82663340D02*
X122001028Y-82568102D01*
X122001028Y-82568102D02*
X122048647Y-82520483D01*
X122048647Y-82520483D02*
X122143885Y-82472864D01*
X122143885Y-82472864D02*
X122239123Y-82472864D01*
X122953409Y-83091912D02*
X122858171Y-83139531D01*
X122858171Y-83139531D02*
X122667695Y-83139531D01*
X122667695Y-83139531D02*
X122572457Y-83091912D01*
X122572457Y-83091912D02*
X122524838Y-82996673D01*
X122524838Y-82996673D02*
X122524838Y-82615721D01*
X122524838Y-82615721D02*
X122572457Y-82520483D01*
X122572457Y-82520483D02*
X122667695Y-82472864D01*
X122667695Y-82472864D02*
X122858171Y-82472864D01*
X122858171Y-82472864D02*
X122953409Y-82520483D01*
X122953409Y-82520483D02*
X123001028Y-82615721D01*
X123001028Y-82615721D02*
X123001028Y-82710959D01*
X123001028Y-82710959D02*
X122524838Y-82806197D01*
X123334362Y-82472864D02*
X123572457Y-83139531D01*
X123810552Y-82472864D02*
X123572457Y-83139531D01*
X123572457Y-83139531D02*
X123477219Y-83377626D01*
X123477219Y-83377626D02*
X123429600Y-83425245D01*
X123429600Y-83425245D02*
X123334362Y-83472864D01*
X124572457Y-83091912D02*
X124477219Y-83139531D01*
X124477219Y-83139531D02*
X124286743Y-83139531D01*
X124286743Y-83139531D02*
X124191505Y-83091912D01*
X124191505Y-83091912D02*
X124143886Y-82996673D01*
X124143886Y-82996673D02*
X124143886Y-82615721D01*
X124143886Y-82615721D02*
X124191505Y-82520483D01*
X124191505Y-82520483D02*
X124286743Y-82472864D01*
X124286743Y-82472864D02*
X124477219Y-82472864D01*
X124477219Y-82472864D02*
X124572457Y-82520483D01*
X124572457Y-82520483D02*
X124620076Y-82615721D01*
X124620076Y-82615721D02*
X124620076Y-82710959D01*
X124620076Y-82710959D02*
X124143886Y-82806197D01*
X125048648Y-83139531D02*
X125048648Y-82472864D01*
X125048648Y-82663340D02*
X125096267Y-82568102D01*
X125096267Y-82568102D02*
X125143886Y-82520483D01*
X125143886Y-82520483D02*
X125239124Y-82472864D01*
X125239124Y-82472864D02*
X125334362Y-82472864D01*
X117001027Y-83749475D02*
X117334360Y-84749475D01*
X117334360Y-84749475D02*
X117667693Y-83749475D01*
X118381979Y-84701856D02*
X118286741Y-84749475D01*
X118286741Y-84749475D02*
X118096265Y-84749475D01*
X118096265Y-84749475D02*
X118001027Y-84701856D01*
X118001027Y-84701856D02*
X117953408Y-84606617D01*
X117953408Y-84606617D02*
X117953408Y-84225665D01*
X117953408Y-84225665D02*
X118001027Y-84130427D01*
X118001027Y-84130427D02*
X118096265Y-84082808D01*
X118096265Y-84082808D02*
X118286741Y-84082808D01*
X118286741Y-84082808D02*
X118381979Y-84130427D01*
X118381979Y-84130427D02*
X118429598Y-84225665D01*
X118429598Y-84225665D02*
X118429598Y-84320903D01*
X118429598Y-84320903D02*
X117953408Y-84416141D01*
X118858170Y-84749475D02*
X118858170Y-84082808D01*
X118858170Y-84273284D02*
X118905789Y-84178046D01*
X118905789Y-84178046D02*
X118953408Y-84130427D01*
X118953408Y-84130427D02*
X119048646Y-84082808D01*
X119048646Y-84082808D02*
X119143884Y-84082808D01*
X119429599Y-84701856D02*
X119524837Y-84749475D01*
X119524837Y-84749475D02*
X119715313Y-84749475D01*
X119715313Y-84749475D02*
X119810551Y-84701856D01*
X119810551Y-84701856D02*
X119858170Y-84606617D01*
X119858170Y-84606617D02*
X119858170Y-84558998D01*
X119858170Y-84558998D02*
X119810551Y-84463760D01*
X119810551Y-84463760D02*
X119715313Y-84416141D01*
X119715313Y-84416141D02*
X119572456Y-84416141D01*
X119572456Y-84416141D02*
X119477218Y-84368522D01*
X119477218Y-84368522D02*
X119429599Y-84273284D01*
X119429599Y-84273284D02*
X119429599Y-84225665D01*
X119429599Y-84225665D02*
X119477218Y-84130427D01*
X119477218Y-84130427D02*
X119572456Y-84082808D01*
X119572456Y-84082808D02*
X119715313Y-84082808D01*
X119715313Y-84082808D02*
X119810551Y-84130427D01*
X120286742Y-84749475D02*
X120286742Y-84082808D01*
X120286742Y-83749475D02*
X120239123Y-83797094D01*
X120239123Y-83797094D02*
X120286742Y-83844713D01*
X120286742Y-83844713D02*
X120334361Y-83797094D01*
X120334361Y-83797094D02*
X120286742Y-83749475D01*
X120286742Y-83749475D02*
X120286742Y-83844713D01*
X120905789Y-84749475D02*
X120810551Y-84701856D01*
X120810551Y-84701856D02*
X120762932Y-84654236D01*
X120762932Y-84654236D02*
X120715313Y-84558998D01*
X120715313Y-84558998D02*
X120715313Y-84273284D01*
X120715313Y-84273284D02*
X120762932Y-84178046D01*
X120762932Y-84178046D02*
X120810551Y-84130427D01*
X120810551Y-84130427D02*
X120905789Y-84082808D01*
X120905789Y-84082808D02*
X121048646Y-84082808D01*
X121048646Y-84082808D02*
X121143884Y-84130427D01*
X121143884Y-84130427D02*
X121191503Y-84178046D01*
X121191503Y-84178046D02*
X121239122Y-84273284D01*
X121239122Y-84273284D02*
X121239122Y-84558998D01*
X121239122Y-84558998D02*
X121191503Y-84654236D01*
X121191503Y-84654236D02*
X121143884Y-84701856D01*
X121143884Y-84701856D02*
X121048646Y-84749475D01*
X121048646Y-84749475D02*
X120905789Y-84749475D01*
X121667694Y-84082808D02*
X121667694Y-84749475D01*
X121667694Y-84178046D02*
X121715313Y-84130427D01*
X121715313Y-84130427D02*
X121810551Y-84082808D01*
X121810551Y-84082808D02*
X121953408Y-84082808D01*
X121953408Y-84082808D02*
X122048646Y-84130427D01*
X122048646Y-84130427D02*
X122096265Y-84225665D01*
X122096265Y-84225665D02*
X122096265Y-84749475D01*
X123858170Y-84749475D02*
X123286742Y-84749475D01*
X123572456Y-84749475D02*
X123572456Y-83749475D01*
X123572456Y-83749475D02*
X123477218Y-83892332D01*
X123477218Y-83892332D02*
X123381980Y-83987570D01*
X123381980Y-83987570D02*
X123286742Y-84035189D01*
X124286742Y-84654236D02*
X124334361Y-84701856D01*
X124334361Y-84701856D02*
X124286742Y-84749475D01*
X124286742Y-84749475D02*
X124239123Y-84701856D01*
X124239123Y-84701856D02*
X124286742Y-84654236D01*
X124286742Y-84654236D02*
X124286742Y-84749475D01*
X124953408Y-83749475D02*
X125048646Y-83749475D01*
X125048646Y-83749475D02*
X125143884Y-83797094D01*
X125143884Y-83797094D02*
X125191503Y-83844713D01*
X125191503Y-83844713D02*
X125239122Y-83939951D01*
X125239122Y-83939951D02*
X125286741Y-84130427D01*
X125286741Y-84130427D02*
X125286741Y-84368522D01*
X125286741Y-84368522D02*
X125239122Y-84558998D01*
X125239122Y-84558998D02*
X125191503Y-84654236D01*
X125191503Y-84654236D02*
X125143884Y-84701856D01*
X125143884Y-84701856D02*
X125048646Y-84749475D01*
X125048646Y-84749475D02*
X124953408Y-84749475D01*
X124953408Y-84749475D02*
X124858170Y-84701856D01*
X124858170Y-84701856D02*
X124810551Y-84654236D01*
X124810551Y-84654236D02*
X124762932Y-84558998D01*
X124762932Y-84558998D02*
X124715313Y-84368522D01*
X124715313Y-84368522D02*
X124715313Y-84130427D01*
X124715313Y-84130427D02*
X124762932Y-83939951D01*
X124762932Y-83939951D02*
X124810551Y-83844713D01*
X124810551Y-83844713D02*
X124858170Y-83797094D01*
X124858170Y-83797094D02*
X124953408Y-83749475D01*
X117096265Y-85454657D02*
X117143884Y-85407038D01*
X117143884Y-85407038D02*
X117239122Y-85359419D01*
X117239122Y-85359419D02*
X117477217Y-85359419D01*
X117477217Y-85359419D02*
X117572455Y-85407038D01*
X117572455Y-85407038D02*
X117620074Y-85454657D01*
X117620074Y-85454657D02*
X117667693Y-85549895D01*
X117667693Y-85549895D02*
X117667693Y-85645133D01*
X117667693Y-85645133D02*
X117620074Y-85787990D01*
X117620074Y-85787990D02*
X117048646Y-86359419D01*
X117048646Y-86359419D02*
X117667693Y-86359419D01*
X118286741Y-85359419D02*
X118381979Y-85359419D01*
X118381979Y-85359419D02*
X118477217Y-85407038D01*
X118477217Y-85407038D02*
X118524836Y-85454657D01*
X118524836Y-85454657D02*
X118572455Y-85549895D01*
X118572455Y-85549895D02*
X118620074Y-85740371D01*
X118620074Y-85740371D02*
X118620074Y-85978466D01*
X118620074Y-85978466D02*
X118572455Y-86168942D01*
X118572455Y-86168942D02*
X118524836Y-86264180D01*
X118524836Y-86264180D02*
X118477217Y-86311800D01*
X118477217Y-86311800D02*
X118381979Y-86359419D01*
X118381979Y-86359419D02*
X118286741Y-86359419D01*
X118286741Y-86359419D02*
X118191503Y-86311800D01*
X118191503Y-86311800D02*
X118143884Y-86264180D01*
X118143884Y-86264180D02*
X118096265Y-86168942D01*
X118096265Y-86168942D02*
X118048646Y-85978466D01*
X118048646Y-85978466D02*
X118048646Y-85740371D01*
X118048646Y-85740371D02*
X118096265Y-85549895D01*
X118096265Y-85549895D02*
X118143884Y-85454657D01*
X118143884Y-85454657D02*
X118191503Y-85407038D01*
X118191503Y-85407038D02*
X118286741Y-85359419D01*
X119001027Y-85454657D02*
X119048646Y-85407038D01*
X119048646Y-85407038D02*
X119143884Y-85359419D01*
X119143884Y-85359419D02*
X119381979Y-85359419D01*
X119381979Y-85359419D02*
X119477217Y-85407038D01*
X119477217Y-85407038D02*
X119524836Y-85454657D01*
X119524836Y-85454657D02*
X119572455Y-85549895D01*
X119572455Y-85549895D02*
X119572455Y-85645133D01*
X119572455Y-85645133D02*
X119524836Y-85787990D01*
X119524836Y-85787990D02*
X118953408Y-86359419D01*
X118953408Y-86359419D02*
X119572455Y-86359419D01*
X120429598Y-85692752D02*
X120429598Y-86359419D01*
X120191503Y-85311800D02*
X119953408Y-86026085D01*
X119953408Y-86026085D02*
X120572455Y-86026085D01*
X120953408Y-85978466D02*
X121715313Y-85978466D01*
X122715312Y-86359419D02*
X122143884Y-86359419D01*
X122429598Y-86359419D02*
X122429598Y-85359419D01*
X122429598Y-85359419D02*
X122334360Y-85502276D01*
X122334360Y-85502276D02*
X122239122Y-85597514D01*
X122239122Y-85597514D02*
X122143884Y-85645133D01*
X123096265Y-85454657D02*
X123143884Y-85407038D01*
X123143884Y-85407038D02*
X123239122Y-85359419D01*
X123239122Y-85359419D02*
X123477217Y-85359419D01*
X123477217Y-85359419D02*
X123572455Y-85407038D01*
X123572455Y-85407038D02*
X123620074Y-85454657D01*
X123620074Y-85454657D02*
X123667693Y-85549895D01*
X123667693Y-85549895D02*
X123667693Y-85645133D01*
X123667693Y-85645133D02*
X123620074Y-85787990D01*
X123620074Y-85787990D02*
X123048646Y-86359419D01*
X123048646Y-86359419D02*
X123667693Y-86359419D01*
X124096265Y-85978466D02*
X124858170Y-85978466D01*
X125858169Y-86359419D02*
X125286741Y-86359419D01*
X125572455Y-86359419D02*
X125572455Y-85359419D01*
X125572455Y-85359419D02*
X125477217Y-85502276D01*
X125477217Y-85502276D02*
X125381979Y-85597514D01*
X125381979Y-85597514D02*
X125286741Y-85645133D01*
X126715312Y-85359419D02*
X126524836Y-85359419D01*
X126524836Y-85359419D02*
X126429598Y-85407038D01*
X126429598Y-85407038D02*
X126381979Y-85454657D01*
X126381979Y-85454657D02*
X126286741Y-85597514D01*
X126286741Y-85597514D02*
X126239122Y-85787990D01*
X126239122Y-85787990D02*
X126239122Y-86168942D01*
X126239122Y-86168942D02*
X126286741Y-86264180D01*
X126286741Y-86264180D02*
X126334360Y-86311800D01*
X126334360Y-86311800D02*
X126429598Y-86359419D01*
X126429598Y-86359419D02*
X126620074Y-86359419D01*
X126620074Y-86359419D02*
X126715312Y-86311800D01*
X126715312Y-86311800D02*
X126762931Y-86264180D01*
X126762931Y-86264180D02*
X126810550Y-86168942D01*
X126810550Y-86168942D02*
X126810550Y-85930847D01*
X126810550Y-85930847D02*
X126762931Y-85835609D01*
X126762931Y-85835609D02*
X126715312Y-85787990D01*
X126715312Y-85787990D02*
X126620074Y-85740371D01*
X126620074Y-85740371D02*
X126429598Y-85740371D01*
X126429598Y-85740371D02*
X126334360Y-85787990D01*
X126334360Y-85787990D02*
X126286741Y-85835609D01*
X126286741Y-85835609D02*
X126239122Y-85930847D01*
D11*
X122292462Y-95255573D02*
X122191447Y-95289245D01*
X122191447Y-95289245D02*
X122090431Y-95390260D01*
X122090431Y-95390260D02*
X122023088Y-95524947D01*
X122023088Y-95524947D02*
X122023088Y-95659634D01*
X122023088Y-95659634D02*
X122056760Y-95760650D01*
X122056760Y-95760650D02*
X122157775Y-95929008D01*
X122157775Y-95929008D02*
X122258790Y-96030024D01*
X122258790Y-96030024D02*
X122427149Y-96131039D01*
X122427149Y-96131039D02*
X122528164Y-96164711D01*
X122528164Y-96164711D02*
X122662851Y-96164711D01*
X122662851Y-96164711D02*
X122797538Y-96097367D01*
X122797538Y-96097367D02*
X122864882Y-96030024D01*
X122864882Y-96030024D02*
X122932225Y-95895337D01*
X122932225Y-95895337D02*
X122932225Y-95827993D01*
X122932225Y-95827993D02*
X122696523Y-95592291D01*
X122696523Y-95592291D02*
X122561836Y-95726978D01*
X123302614Y-95592291D02*
X122595508Y-94885184D01*
X122595508Y-94885184D02*
X123706675Y-95188230D01*
X123706675Y-95188230D02*
X122999569Y-94481123D01*
X124043393Y-94851512D02*
X123336286Y-94144406D01*
X123336286Y-94144406D02*
X123504645Y-93976047D01*
X123504645Y-93976047D02*
X123639332Y-93908703D01*
X123639332Y-93908703D02*
X123774019Y-93908703D01*
X123774019Y-93908703D02*
X123875034Y-93942375D01*
X123875034Y-93942375D02*
X124043393Y-94043390D01*
X124043393Y-94043390D02*
X124144408Y-94144406D01*
X124144408Y-94144406D02*
X124245423Y-94312764D01*
X124245423Y-94312764D02*
X124279095Y-94413780D01*
X124279095Y-94413780D02*
X124279095Y-94548467D01*
X124279095Y-94548467D02*
X124211752Y-94683154D01*
X124211752Y-94683154D02*
X124043393Y-94851512D01*
X121258164Y-89814711D02*
X121392851Y-89747367D01*
X121392851Y-89747367D02*
X121561210Y-89579008D01*
X121561210Y-89579008D02*
X121594882Y-89477993D01*
X121594882Y-89477993D02*
X121594882Y-89410650D01*
X121594882Y-89410650D02*
X121561210Y-89309634D01*
X121561210Y-89309634D02*
X121493866Y-89242291D01*
X121493866Y-89242291D02*
X121392851Y-89208619D01*
X121392851Y-89208619D02*
X121325508Y-89208619D01*
X121325508Y-89208619D02*
X121224492Y-89242291D01*
X121224492Y-89242291D02*
X121056134Y-89343306D01*
X121056134Y-89343306D02*
X120955118Y-89376978D01*
X120955118Y-89376978D02*
X120887775Y-89376978D01*
X120887775Y-89376978D02*
X120786760Y-89343306D01*
X120786760Y-89343306D02*
X120719416Y-89275963D01*
X120719416Y-89275963D02*
X120685744Y-89174947D01*
X120685744Y-89174947D02*
X120685744Y-89107604D01*
X120685744Y-89107604D02*
X120719416Y-89006589D01*
X120719416Y-89006589D02*
X120887775Y-88838230D01*
X120887775Y-88838230D02*
X121022462Y-88770886D01*
X121224492Y-88501512D02*
X122099958Y-89040260D01*
X122099958Y-89040260D02*
X121729569Y-88400497D01*
X121729569Y-88400497D02*
X122369332Y-88770886D01*
X122369332Y-88770886D02*
X121830584Y-87895421D01*
X122234645Y-87491360D02*
X122369332Y-87356673D01*
X122369332Y-87356673D02*
X122470347Y-87323001D01*
X122470347Y-87323001D02*
X122605034Y-87323001D01*
X122605034Y-87323001D02*
X122773393Y-87424016D01*
X122773393Y-87424016D02*
X123009095Y-87659719D01*
X123009095Y-87659719D02*
X123110110Y-87828077D01*
X123110110Y-87828077D02*
X123110110Y-87962764D01*
X123110110Y-87962764D02*
X123076439Y-88063780D01*
X123076439Y-88063780D02*
X122941752Y-88198467D01*
X122941752Y-88198467D02*
X122840736Y-88232138D01*
X122840736Y-88232138D02*
X122706049Y-88232138D01*
X122706049Y-88232138D02*
X122537691Y-88131123D01*
X122537691Y-88131123D02*
X122301988Y-87895421D01*
X122301988Y-87895421D02*
X122200973Y-87727062D01*
X122200973Y-87727062D02*
X122200973Y-87592375D01*
X122200973Y-87592375D02*
X122234645Y-87491360D01*
X126659508Y-89814711D02*
X125952401Y-89107604D01*
X126423805Y-88636200D02*
X126558492Y-88501513D01*
X126558492Y-88501513D02*
X126659507Y-88467841D01*
X126659507Y-88467841D02*
X126794194Y-88467841D01*
X126794194Y-88467841D02*
X126962553Y-88568856D01*
X126962553Y-88568856D02*
X127198255Y-88804559D01*
X127198255Y-88804559D02*
X127299271Y-88972917D01*
X127299271Y-88972917D02*
X127299271Y-89107604D01*
X127299271Y-89107604D02*
X127265599Y-89208620D01*
X127265599Y-89208620D02*
X127130912Y-89343307D01*
X127130912Y-89343307D02*
X127029897Y-89376978D01*
X127029897Y-89376978D02*
X126895210Y-89376978D01*
X126895210Y-89376978D02*
X126726851Y-89275963D01*
X126726851Y-89275963D02*
X126491149Y-89040261D01*
X126491149Y-89040261D02*
X126390133Y-88871902D01*
X126390133Y-88871902D02*
X126390133Y-88737215D01*
X126390133Y-88737215D02*
X126423805Y-88636200D01*
X124881508Y-96804474D02*
X124174401Y-96097367D01*
X124174401Y-96097367D02*
X125285569Y-96400413D01*
X125285569Y-96400413D02*
X124578462Y-95693306D01*
X126026347Y-95659634D02*
X125453927Y-95558619D01*
X125622286Y-96063695D02*
X124915179Y-95356588D01*
X124915179Y-95356588D02*
X125184553Y-95087214D01*
X125184553Y-95087214D02*
X125285569Y-95053543D01*
X125285569Y-95053543D02*
X125352912Y-95053543D01*
X125352912Y-95053543D02*
X125453927Y-95087214D01*
X125453927Y-95087214D02*
X125554943Y-95188230D01*
X125554943Y-95188230D02*
X125588614Y-95289245D01*
X125588614Y-95289245D02*
X125588614Y-95356588D01*
X125588614Y-95356588D02*
X125554943Y-95457604D01*
X125554943Y-95457604D02*
X125285569Y-95726978D01*
X126262049Y-95356588D02*
X126396736Y-95289245D01*
X126396736Y-95289245D02*
X126565095Y-95120886D01*
X126565095Y-95120886D02*
X126598767Y-95019871D01*
X126598767Y-95019871D02*
X126598767Y-94952527D01*
X126598767Y-94952527D02*
X126565095Y-94851512D01*
X126565095Y-94851512D02*
X126497752Y-94784169D01*
X126497752Y-94784169D02*
X126396736Y-94750497D01*
X126396736Y-94750497D02*
X126329393Y-94750497D01*
X126329393Y-94750497D02*
X126228378Y-94784169D01*
X126228378Y-94784169D02*
X126060019Y-94885184D01*
X126060019Y-94885184D02*
X125959004Y-94918856D01*
X125959004Y-94918856D02*
X125891660Y-94918856D01*
X125891660Y-94918856D02*
X125790645Y-94885184D01*
X125790645Y-94885184D02*
X125723301Y-94817840D01*
X125723301Y-94817840D02*
X125689630Y-94716825D01*
X125689630Y-94716825D02*
X125689630Y-94649482D01*
X125689630Y-94649482D02*
X125723301Y-94548466D01*
X125723301Y-94548466D02*
X125891660Y-94380108D01*
X125891660Y-94380108D02*
X126026347Y-94312764D01*
X126194706Y-94077062D02*
X126598767Y-93673001D01*
X127103843Y-94582138D02*
X126396736Y-93875031D01*
X124456225Y-89343306D02*
X124456225Y-89410650D01*
X124456225Y-89410650D02*
X124388882Y-89545337D01*
X124388882Y-89545337D02*
X124321538Y-89612680D01*
X124321538Y-89612680D02*
X124186851Y-89680024D01*
X124186851Y-89680024D02*
X124052164Y-89680024D01*
X124052164Y-89680024D02*
X123951149Y-89646352D01*
X123951149Y-89646352D02*
X123782790Y-89545337D01*
X123782790Y-89545337D02*
X123681775Y-89444321D01*
X123681775Y-89444321D02*
X123580760Y-89275963D01*
X123580760Y-89275963D02*
X123547088Y-89174947D01*
X123547088Y-89174947D02*
X123547088Y-89040260D01*
X123547088Y-89040260D02*
X123614431Y-88905573D01*
X123614431Y-88905573D02*
X123681775Y-88838230D01*
X123681775Y-88838230D02*
X123816462Y-88770886D01*
X123816462Y-88770886D02*
X123883805Y-88770886D01*
X125163332Y-88770886D02*
X124826614Y-89107604D01*
X124826614Y-89107604D02*
X124119508Y-88400497D01*
X125399034Y-88535184D02*
X124691928Y-87828077D01*
X125803095Y-88131123D02*
X125095989Y-88030108D01*
X125095989Y-87424016D02*
X125095989Y-88232138D01*
D12*
X125555333Y-76118308D02*
X125555333Y-75404023D01*
X125555333Y-75404023D02*
X125602952Y-75261166D01*
X125602952Y-75261166D02*
X125698190Y-75165928D01*
X125698190Y-75165928D02*
X125841047Y-75118308D01*
X125841047Y-75118308D02*
X125936285Y-75118308D01*
X124555333Y-75118308D02*
X125126761Y-75118308D01*
X124841047Y-75118308D02*
X124841047Y-76118308D01*
X124841047Y-76118308D02*
X124936285Y-75975451D01*
X124936285Y-75975451D02*
X125031523Y-75880213D01*
X125031523Y-75880213D02*
X125126761Y-75832594D01*
D13*
X139033000Y-76843128D02*
G75*
G02*
X138271000Y-76843128I-381000J0D01*
G01*
X138271000Y-76843128D02*
G75*
G02*
X139033000Y-76843128I381000J0D01*
G01*
%LPC*%
D14*
X136652000Y-76843128D03*
X136652000Y-74303128D03*
X134112000Y-76843128D03*
X134112000Y-74303128D03*
X131572000Y-76843128D03*
X131572000Y-74303128D03*
X129032000Y-76843128D03*
X129032000Y-74303128D03*
X126492000Y-76843128D03*
X126492000Y-74303128D03*
X123952000Y-76843128D03*
X123952000Y-74303128D03*
X121412000Y-76843128D03*
X121412000Y-74303128D03*
X118872000Y-76843128D03*
X118872000Y-74303128D03*
X116332000Y-76843128D03*
X116332000Y-74303128D03*
X113792000Y-76843128D03*
X113792000Y-74303128D03*
D15*
X127762000Y-92964000D03*
X127762000Y-90424000D03*
X125222000Y-92964000D03*
X125222000Y-90424000D03*
X122682000Y-92964000D03*
X122682000Y-90424000D03*
%LPD*%
M02*
