G04 #@! TF.GenerationSoftware,KiCad,Pcbnew,8.0.2-1*
G04 #@! TF.CreationDate,2024-12-21T19:46:59+01:00*
G04 #@! TF.ProjectId,ten_to_six,74656e5f-746f-45f7-9369-782e6b696361,rev?*
G04 #@! TF.SameCoordinates,Original*
G04 #@! TF.FileFunction,Copper,L2,Bot*
G04 #@! TF.FilePolarity,Positive*
%FSLAX46Y46*%
G04 Gerber Fmt 4.6, Leading zero omitted, Abs format (unit mm)*
G04 Created by KiCad (PCBNEW 8.0.2-1) date 2024-12-21 19:46:59*
%MOMM*%
%LPD*%
G01*
G04 APERTURE LIST*
G04 #@! TA.AperFunction,ComponentPad*
%ADD10C,1.524000*%
G04 #@! TD*
G04 #@! TA.AperFunction,ComponentPad*
%ADD11C,1.650000*%
G04 #@! TD*
G04 #@! TA.AperFunction,Conductor*
%ADD12C,0.300000*%
G04 #@! TD*
G04 #@! TA.AperFunction,Conductor*
%ADD13C,0.400000*%
G04 #@! TD*
G04 APERTURE END LIST*
D10*
X136652000Y-76843128D03*
X136652000Y-74303128D03*
X134112000Y-76843128D03*
X134112000Y-74303128D03*
X131572000Y-76843128D03*
X131572000Y-74303128D03*
X129032000Y-76843128D03*
X129032000Y-74303128D03*
X126492000Y-76843128D03*
X126492000Y-74303128D03*
X123952000Y-76843128D03*
X123952000Y-74303128D03*
X121412000Y-76843128D03*
X121412000Y-74303128D03*
X118872000Y-76843128D03*
X118872000Y-74303128D03*
X116332000Y-76843128D03*
X116332000Y-74303128D03*
X113792000Y-76843128D03*
X113792000Y-74303128D03*
D11*
X127762000Y-92964000D03*
X127762000Y-90424000D03*
X125222000Y-92964000D03*
X125222000Y-90424000D03*
X122682000Y-92964000D03*
X122682000Y-90424000D03*
D12*
X126466600Y-87517699D02*
X126466600Y-91592400D01*
X130460000Y-83524299D02*
X126466600Y-87517699D01*
X126270000Y-91789000D02*
X123857000Y-91789000D01*
X123857000Y-91789000D02*
X122682000Y-92964000D01*
X130460000Y-75415128D02*
X130460000Y-83524299D01*
X126466600Y-91592400D02*
X126270000Y-91789000D01*
X131572000Y-74303128D02*
X130460000Y-75415128D01*
D13*
X121158000Y-95250000D02*
X122936000Y-95250000D01*
X118872000Y-92964000D02*
X121158000Y-95250000D01*
X118872000Y-76843128D02*
X118872000Y-92964000D01*
X122936000Y-95250000D02*
X125222000Y-92964000D01*
G04 #@! TA.AperFunction,Conductor*
G36*
X113342956Y-72910185D02*
G01*
X113388711Y-72962989D01*
X113398655Y-73032147D01*
X113369630Y-73095703D01*
X113328322Y-73126882D01*
X113158590Y-73206029D01*
X113093811Y-73251386D01*
X113656057Y-73813632D01*
X113595919Y-73829747D01*
X113480080Y-73896626D01*
X113385498Y-73991208D01*
X113318619Y-74107047D01*
X113302504Y-74167185D01*
X112740258Y-73604939D01*
X112694901Y-73669718D01*
X112601579Y-73869848D01*
X112601575Y-73869857D01*
X112544426Y-74083141D01*
X112544424Y-74083151D01*
X112525179Y-74303127D01*
X112525179Y-74303128D01*
X112544424Y-74523104D01*
X112544426Y-74523114D01*
X112601575Y-74736398D01*
X112601580Y-74736412D01*
X112694898Y-74936533D01*
X112694901Y-74936539D01*
X112740258Y-75001315D01*
X112740259Y-75001316D01*
X113302504Y-74439070D01*
X113318619Y-74499209D01*
X113385498Y-74615048D01*
X113480080Y-74709630D01*
X113595919Y-74776509D01*
X113656057Y-74792622D01*
X113093810Y-75354868D01*
X113158589Y-75400226D01*
X113287781Y-75460470D01*
X113340220Y-75506642D01*
X113359372Y-75573836D01*
X113339156Y-75640717D01*
X113287781Y-75685234D01*
X113158340Y-75745593D01*
X113158338Y-75745594D01*
X112977377Y-75872303D01*
X112821175Y-76028505D01*
X112694466Y-76209466D01*
X112694465Y-76209468D01*
X112601107Y-76409676D01*
X112601104Y-76409682D01*
X112543930Y-76623057D01*
X112543929Y-76623065D01*
X112524677Y-76843125D01*
X112524677Y-76843130D01*
X112543929Y-77063190D01*
X112543930Y-77063198D01*
X112601104Y-77276573D01*
X112601105Y-77276575D01*
X112601106Y-77276578D01*
X112634382Y-77347939D01*
X112694466Y-77476790D01*
X112694468Y-77476794D01*
X112821170Y-77657743D01*
X112821175Y-77657749D01*
X112977378Y-77813952D01*
X112977384Y-77813957D01*
X113158333Y-77940659D01*
X113158335Y-77940660D01*
X113158338Y-77940662D01*
X113358550Y-78034022D01*
X113571932Y-78091198D01*
X113729123Y-78104950D01*
X113791998Y-78110451D01*
X113792000Y-78110451D01*
X113792002Y-78110451D01*
X113847017Y-78105637D01*
X114012068Y-78091198D01*
X114225450Y-78034022D01*
X114425662Y-77940662D01*
X114606620Y-77813954D01*
X114762826Y-77657748D01*
X114889534Y-77476790D01*
X114949618Y-77347939D01*
X114995790Y-77295499D01*
X115062983Y-77276347D01*
X115129865Y-77296563D01*
X115174382Y-77347939D01*
X115234464Y-77476786D01*
X115234468Y-77476794D01*
X115361170Y-77657743D01*
X115361175Y-77657749D01*
X115517378Y-77813952D01*
X115517384Y-77813957D01*
X115698333Y-77940659D01*
X115698335Y-77940660D01*
X115698338Y-77940662D01*
X115898550Y-78034022D01*
X116111932Y-78091198D01*
X116269123Y-78104950D01*
X116331998Y-78110451D01*
X116332000Y-78110451D01*
X116332002Y-78110451D01*
X116387017Y-78105637D01*
X116552068Y-78091198D01*
X116765450Y-78034022D01*
X116965662Y-77940662D01*
X117146620Y-77813954D01*
X117302826Y-77657748D01*
X117429534Y-77476790D01*
X117489618Y-77347939D01*
X117535790Y-77295499D01*
X117602983Y-77276347D01*
X117669865Y-77296563D01*
X117714382Y-77347939D01*
X117774464Y-77476786D01*
X117774468Y-77476794D01*
X117901170Y-77657743D01*
X117901174Y-77657748D01*
X118057380Y-77813954D01*
X118118623Y-77856836D01*
X118162248Y-77911412D01*
X118171500Y-77958411D01*
X118171500Y-92895006D01*
X118171500Y-93032994D01*
X118171500Y-93032996D01*
X118171499Y-93032996D01*
X118198418Y-93168322D01*
X118198421Y-93168332D01*
X118251222Y-93295807D01*
X118327887Y-93410545D01*
X120711454Y-95794112D01*
X120826190Y-95870776D01*
X120924790Y-95911617D01*
X120953671Y-95923580D01*
X120953672Y-95923580D01*
X120953677Y-95923582D01*
X120980545Y-95928925D01*
X120980551Y-95928926D01*
X120980591Y-95928934D01*
X121070937Y-95946905D01*
X121089006Y-95950500D01*
X121089007Y-95950500D01*
X123004996Y-95950500D01*
X123113457Y-95928925D01*
X123140328Y-95923580D01*
X123204069Y-95897177D01*
X123267807Y-95870777D01*
X123267808Y-95870776D01*
X123267811Y-95870775D01*
X123382543Y-95794114D01*
X124870418Y-94306237D01*
X124931739Y-94272754D01*
X124985502Y-94274035D01*
X124985613Y-94273408D01*
X124989749Y-94274137D01*
X124990199Y-94274147D01*
X124990950Y-94274349D01*
X125184822Y-94291310D01*
X125221998Y-94294563D01*
X125222000Y-94294563D01*
X125222002Y-94294563D01*
X125279762Y-94289509D01*
X125453050Y-94274349D01*
X125677079Y-94214320D01*
X125887282Y-94116301D01*
X126077269Y-93983270D01*
X126241270Y-93819269D01*
X126374301Y-93629282D01*
X126379618Y-93617878D01*
X126425790Y-93565440D01*
X126492984Y-93546288D01*
X126559865Y-93566504D01*
X126604381Y-93617878D01*
X126609699Y-93629282D01*
X126742730Y-93819269D01*
X126906731Y-93983270D01*
X127096718Y-94116301D01*
X127306921Y-94214320D01*
X127530950Y-94274349D01*
X127695985Y-94288787D01*
X127761998Y-94294563D01*
X127762000Y-94294563D01*
X127762002Y-94294563D01*
X127819762Y-94289509D01*
X127993050Y-94274349D01*
X128217079Y-94214320D01*
X128427282Y-94116301D01*
X128617269Y-93983270D01*
X128781270Y-93819269D01*
X128914301Y-93629282D01*
X129012320Y-93419079D01*
X129072349Y-93195050D01*
X129092563Y-92964000D01*
X129072349Y-92732950D01*
X129012320Y-92508921D01*
X128914301Y-92298719D01*
X128914299Y-92298716D01*
X128914298Y-92298714D01*
X128781273Y-92108735D01*
X128781268Y-92108729D01*
X128617269Y-91944730D01*
X128506292Y-91867023D01*
X128427282Y-91811699D01*
X128415878Y-91806381D01*
X128363440Y-91760210D01*
X128344288Y-91693016D01*
X128364504Y-91626135D01*
X128415878Y-91581618D01*
X128427282Y-91576301D01*
X128617269Y-91443270D01*
X128781270Y-91279269D01*
X128914301Y-91089282D01*
X129012320Y-90879079D01*
X129072349Y-90655050D01*
X129092563Y-90424000D01*
X129072349Y-90192950D01*
X129012320Y-89968921D01*
X128914301Y-89758719D01*
X128914299Y-89758716D01*
X128914298Y-89758714D01*
X128781273Y-89568735D01*
X128781268Y-89568729D01*
X128617269Y-89404730D01*
X128617263Y-89404726D01*
X128427282Y-89271699D01*
X128217079Y-89173680D01*
X128217076Y-89173679D01*
X128217074Y-89173678D01*
X127993051Y-89113651D01*
X127993044Y-89113650D01*
X127762002Y-89093437D01*
X127761998Y-89093437D01*
X127530955Y-89113650D01*
X127530948Y-89113651D01*
X127306917Y-89173681D01*
X127096718Y-89271699D01*
X127096714Y-89271701D01*
X126906735Y-89404726D01*
X126906729Y-89404731D01*
X126742731Y-89568729D01*
X126742726Y-89568735D01*
X126609701Y-89758714D01*
X126609698Y-89758720D01*
X126604381Y-89770123D01*
X126558207Y-89822562D01*
X126491013Y-89841712D01*
X126424133Y-89821495D01*
X126379619Y-89770123D01*
X126374301Y-89758720D01*
X126374298Y-89758714D01*
X126241273Y-89568735D01*
X126241268Y-89568729D01*
X126077269Y-89404730D01*
X126077263Y-89404726D01*
X125887282Y-89271699D01*
X125677079Y-89173680D01*
X125677076Y-89173679D01*
X125677074Y-89173678D01*
X125453051Y-89113651D01*
X125453044Y-89113650D01*
X125222002Y-89093437D01*
X125221998Y-89093437D01*
X124990955Y-89113650D01*
X124990948Y-89113651D01*
X124766917Y-89173681D01*
X124556718Y-89271699D01*
X124556714Y-89271701D01*
X124366735Y-89404726D01*
X124366729Y-89404731D01*
X124202731Y-89568729D01*
X124202726Y-89568735D01*
X124069701Y-89758714D01*
X124069698Y-89758720D01*
X124064381Y-89770123D01*
X124018207Y-89822562D01*
X123951013Y-89841712D01*
X123884133Y-89821495D01*
X123839619Y-89770123D01*
X123834301Y-89758720D01*
X123834298Y-89758714D01*
X123701273Y-89568735D01*
X123701268Y-89568729D01*
X123537269Y-89404730D01*
X123537263Y-89404726D01*
X123347282Y-89271699D01*
X123137079Y-89173680D01*
X123137076Y-89173679D01*
X123137074Y-89173678D01*
X122913051Y-89113651D01*
X122913044Y-89113650D01*
X122682002Y-89093437D01*
X122681998Y-89093437D01*
X122450955Y-89113650D01*
X122450948Y-89113651D01*
X122226917Y-89173681D01*
X122016718Y-89271699D01*
X122016714Y-89271701D01*
X121826735Y-89404726D01*
X121826729Y-89404731D01*
X121662731Y-89568729D01*
X121662726Y-89568735D01*
X121529701Y-89758714D01*
X121529699Y-89758718D01*
X121431681Y-89968917D01*
X121371651Y-90192948D01*
X121371650Y-90192955D01*
X121351437Y-90423998D01*
X121351437Y-90424001D01*
X121371650Y-90655044D01*
X121371651Y-90655051D01*
X121431678Y-90879074D01*
X121431679Y-90879076D01*
X121431680Y-90879079D01*
X121529699Y-91089282D01*
X121662730Y-91279269D01*
X121826731Y-91443270D01*
X122016718Y-91576301D01*
X122028710Y-91581893D01*
X122081149Y-91628062D01*
X122100303Y-91695255D01*
X122080089Y-91762137D01*
X122028717Y-91806655D01*
X122016966Y-91812134D01*
X121938576Y-91867022D01*
X122511766Y-92440212D01*
X122469708Y-92451482D01*
X122344292Y-92523890D01*
X122241890Y-92626292D01*
X122169482Y-92751708D01*
X122158212Y-92793766D01*
X121585022Y-92220576D01*
X121530134Y-92298967D01*
X121432152Y-92509090D01*
X121432148Y-92509099D01*
X121372147Y-92733031D01*
X121372145Y-92733041D01*
X121351939Y-92963999D01*
X121351939Y-92964000D01*
X121372145Y-93194958D01*
X121372147Y-93194968D01*
X121432148Y-93418900D01*
X121432152Y-93418909D01*
X121530133Y-93629030D01*
X121585023Y-93707422D01*
X122158212Y-93134233D01*
X122169482Y-93176292D01*
X122241890Y-93301708D01*
X122344292Y-93404110D01*
X122469708Y-93476518D01*
X122511765Y-93487787D01*
X121938576Y-94060975D01*
X122016969Y-94115867D01*
X122227090Y-94213847D01*
X122227099Y-94213851D01*
X122451031Y-94273852D01*
X122451042Y-94273854D01*
X122618733Y-94288525D01*
X122683802Y-94313977D01*
X122724781Y-94370568D01*
X122728659Y-94440330D01*
X122695614Y-94499728D01*
X122689117Y-94506224D01*
X122682166Y-94513176D01*
X122620848Y-94546664D01*
X122594481Y-94549500D01*
X121499519Y-94549500D01*
X121432480Y-94529815D01*
X121411838Y-94513181D01*
X119608819Y-92710162D01*
X119575334Y-92648839D01*
X119572500Y-92622481D01*
X119572500Y-77958411D01*
X119592185Y-77891372D01*
X119625375Y-77856837D01*
X119686620Y-77813954D01*
X119842826Y-77657748D01*
X119969534Y-77476790D01*
X120029618Y-77347939D01*
X120075790Y-77295499D01*
X120142983Y-77276347D01*
X120209865Y-77296563D01*
X120254382Y-77347939D01*
X120314464Y-77476786D01*
X120314468Y-77476794D01*
X120441170Y-77657743D01*
X120441175Y-77657749D01*
X120597378Y-77813952D01*
X120597384Y-77813957D01*
X120778333Y-77940659D01*
X120778335Y-77940660D01*
X120778338Y-77940662D01*
X120978550Y-78034022D01*
X121191932Y-78091198D01*
X121349123Y-78104950D01*
X121411998Y-78110451D01*
X121412000Y-78110451D01*
X121412002Y-78110451D01*
X121467017Y-78105637D01*
X121632068Y-78091198D01*
X121845450Y-78034022D01*
X122045662Y-77940662D01*
X122226620Y-77813954D01*
X122382826Y-77657748D01*
X122509534Y-77476790D01*
X122569618Y-77347939D01*
X122615790Y-77295499D01*
X122682983Y-77276347D01*
X122749865Y-77296563D01*
X122794382Y-77347939D01*
X122854464Y-77476786D01*
X122854468Y-77476794D01*
X122981170Y-77657743D01*
X122981175Y-77657749D01*
X123137378Y-77813952D01*
X123137384Y-77813957D01*
X123318333Y-77940659D01*
X123318335Y-77940660D01*
X123318338Y-77940662D01*
X123518550Y-78034022D01*
X123731932Y-78091198D01*
X123889123Y-78104950D01*
X123951998Y-78110451D01*
X123952000Y-78110451D01*
X123952002Y-78110451D01*
X124007017Y-78105637D01*
X124172068Y-78091198D01*
X124385450Y-78034022D01*
X124585662Y-77940662D01*
X124766620Y-77813954D01*
X124922826Y-77657748D01*
X125049534Y-77476790D01*
X125109618Y-77347939D01*
X125155790Y-77295499D01*
X125222983Y-77276347D01*
X125289865Y-77296563D01*
X125334382Y-77347939D01*
X125394464Y-77476786D01*
X125394468Y-77476794D01*
X125521170Y-77657743D01*
X125521175Y-77657749D01*
X125677378Y-77813952D01*
X125677384Y-77813957D01*
X125858333Y-77940659D01*
X125858335Y-77940660D01*
X125858338Y-77940662D01*
X126058550Y-78034022D01*
X126271932Y-78091198D01*
X126429123Y-78104950D01*
X126491998Y-78110451D01*
X126492000Y-78110451D01*
X126492002Y-78110451D01*
X126547017Y-78105637D01*
X126712068Y-78091198D01*
X126925450Y-78034022D01*
X127125662Y-77940662D01*
X127306620Y-77813954D01*
X127462826Y-77657748D01*
X127589534Y-77476790D01*
X127649618Y-77347939D01*
X127695790Y-77295499D01*
X127762983Y-77276347D01*
X127829865Y-77296563D01*
X127874382Y-77347939D01*
X127934464Y-77476786D01*
X127934468Y-77476794D01*
X128061170Y-77657743D01*
X128061175Y-77657749D01*
X128217378Y-77813952D01*
X128217384Y-77813957D01*
X128398333Y-77940659D01*
X128398335Y-77940660D01*
X128398338Y-77940662D01*
X128598550Y-78034022D01*
X128811932Y-78091198D01*
X128969123Y-78104950D01*
X129031998Y-78110451D01*
X129032000Y-78110451D01*
X129032002Y-78110451D01*
X129087017Y-78105637D01*
X129252068Y-78091198D01*
X129465450Y-78034022D01*
X129665662Y-77940662D01*
X129846620Y-77813954D01*
X130002826Y-77657748D01*
X130129534Y-77476790D01*
X130189618Y-77347939D01*
X130235790Y-77295499D01*
X130302983Y-77276347D01*
X130369865Y-77296563D01*
X130414382Y-77347939D01*
X130474464Y-77476786D01*
X130474468Y-77476794D01*
X130601170Y-77657743D01*
X130601175Y-77657749D01*
X130757378Y-77813952D01*
X130757384Y-77813957D01*
X130938333Y-77940659D01*
X130938335Y-77940660D01*
X130938338Y-77940662D01*
X131138550Y-78034022D01*
X131351932Y-78091198D01*
X131509123Y-78104950D01*
X131571998Y-78110451D01*
X131572000Y-78110451D01*
X131572002Y-78110451D01*
X131627017Y-78105637D01*
X131792068Y-78091198D01*
X132005450Y-78034022D01*
X132205662Y-77940662D01*
X132386620Y-77813954D01*
X132542826Y-77657748D01*
X132669534Y-77476790D01*
X132729618Y-77347939D01*
X132775790Y-77295499D01*
X132842983Y-77276347D01*
X132909865Y-77296563D01*
X132954382Y-77347939D01*
X133014464Y-77476786D01*
X133014468Y-77476794D01*
X133141170Y-77657743D01*
X133141175Y-77657749D01*
X133297378Y-77813952D01*
X133297384Y-77813957D01*
X133478333Y-77940659D01*
X133478335Y-77940660D01*
X133478338Y-77940662D01*
X133678550Y-78034022D01*
X133891932Y-78091198D01*
X134049123Y-78104950D01*
X134111998Y-78110451D01*
X134112000Y-78110451D01*
X134112002Y-78110451D01*
X134167017Y-78105637D01*
X134332068Y-78091198D01*
X134545450Y-78034022D01*
X134745662Y-77940662D01*
X134926620Y-77813954D01*
X135082826Y-77657748D01*
X135209534Y-77476790D01*
X135269618Y-77347939D01*
X135315790Y-77295499D01*
X135382983Y-77276347D01*
X135449865Y-77296563D01*
X135494382Y-77347939D01*
X135554464Y-77476786D01*
X135554468Y-77476794D01*
X135681170Y-77657743D01*
X135681175Y-77657749D01*
X135837378Y-77813952D01*
X135837384Y-77813957D01*
X136018333Y-77940659D01*
X136018335Y-77940660D01*
X136018338Y-77940662D01*
X136218550Y-78034022D01*
X136431932Y-78091198D01*
X136589123Y-78104950D01*
X136651998Y-78110451D01*
X136652000Y-78110451D01*
X136652002Y-78110451D01*
X136707017Y-78105637D01*
X136872068Y-78091198D01*
X137085450Y-78034022D01*
X137285662Y-77940662D01*
X137466620Y-77813954D01*
X137622826Y-77657748D01*
X137749534Y-77476790D01*
X137842894Y-77276578D01*
X137900070Y-77063196D01*
X137919323Y-76843128D01*
X137900070Y-76623060D01*
X137842894Y-76409678D01*
X137749534Y-76209467D01*
X137622826Y-76028508D01*
X137466620Y-75872302D01*
X137466616Y-75872299D01*
X137466615Y-75872298D01*
X137285666Y-75745596D01*
X137285658Y-75745592D01*
X137156811Y-75685510D01*
X137104371Y-75639338D01*
X137085219Y-75572145D01*
X137105435Y-75505263D01*
X137156811Y-75460746D01*
X137162802Y-75457952D01*
X137285662Y-75400662D01*
X137466620Y-75273954D01*
X137622826Y-75117748D01*
X137749534Y-74936790D01*
X137842894Y-74736578D01*
X137900070Y-74523196D01*
X137919323Y-74303128D01*
X137900070Y-74083060D01*
X137842894Y-73869678D01*
X137749534Y-73669467D01*
X137622826Y-73488508D01*
X137466620Y-73332302D01*
X137466616Y-73332299D01*
X137466615Y-73332298D01*
X137285666Y-73205596D01*
X137285658Y-73205592D01*
X137116863Y-73126882D01*
X137064423Y-73080710D01*
X137045271Y-73013517D01*
X137065487Y-72946635D01*
X137118652Y-72901301D01*
X137169267Y-72890500D01*
X140345500Y-72890500D01*
X140412539Y-72910185D01*
X140458294Y-72962989D01*
X140469500Y-73014500D01*
X140469500Y-83916552D01*
X140454678Y-83975340D01*
X133594168Y-96716288D01*
X133545053Y-96765982D01*
X133484990Y-96781500D01*
X116959010Y-96781500D01*
X116891971Y-96761815D01*
X116849832Y-96716288D01*
X109989322Y-83975341D01*
X109974500Y-83916553D01*
X109974500Y-73014500D01*
X109994185Y-72947461D01*
X110046989Y-72901706D01*
X110098500Y-72890500D01*
X113275917Y-72890500D01*
X113342956Y-72910185D01*
G37*
G04 #@! TD.AperFunction*
G04 #@! TA.AperFunction,Conductor*
G36*
X124019865Y-91026504D02*
G01*
X124064381Y-91077878D01*
X124069699Y-91089282D01*
X124202730Y-91279269D01*
X124366731Y-91443270D01*
X124556718Y-91576301D01*
X124568121Y-91581618D01*
X124620560Y-91627790D01*
X124639712Y-91694984D01*
X124619496Y-91761865D01*
X124568123Y-91806381D01*
X124556720Y-91811698D01*
X124556714Y-91811701D01*
X124366735Y-91944726D01*
X124366729Y-91944731D01*
X124202731Y-92108729D01*
X124202726Y-92108735D01*
X124069701Y-92298714D01*
X124069697Y-92298722D01*
X124064104Y-92310716D01*
X124017929Y-92363154D01*
X123950735Y-92382303D01*
X123883855Y-92362084D01*
X123839342Y-92310711D01*
X123833869Y-92298975D01*
X123833866Y-92298969D01*
X123778975Y-92220577D01*
X123778975Y-92220576D01*
X123205787Y-92793764D01*
X123194518Y-92751708D01*
X123122110Y-92626292D01*
X123019708Y-92523890D01*
X122894292Y-92451482D01*
X122852234Y-92440212D01*
X123425422Y-91867023D01*
X123347029Y-91812132D01*
X123335286Y-91806656D01*
X123282848Y-91760482D01*
X123263697Y-91693289D01*
X123283914Y-91626408D01*
X123335289Y-91581893D01*
X123347282Y-91576301D01*
X123537269Y-91443270D01*
X123701270Y-91279269D01*
X123834301Y-91089282D01*
X123839618Y-91077878D01*
X123885790Y-91025440D01*
X123952984Y-91006288D01*
X124019865Y-91026504D01*
G37*
G04 #@! TD.AperFunction*
G04 #@! TA.AperFunction,Conductor*
G36*
X126559865Y-91026504D02*
G01*
X126604381Y-91077878D01*
X126609699Y-91089282D01*
X126742730Y-91279269D01*
X126906731Y-91443270D01*
X127096718Y-91576301D01*
X127108121Y-91581618D01*
X127160560Y-91627790D01*
X127179712Y-91694984D01*
X127159496Y-91761865D01*
X127108123Y-91806381D01*
X127096720Y-91811698D01*
X127096714Y-91811701D01*
X126906735Y-91944726D01*
X126906729Y-91944731D01*
X126742731Y-92108729D01*
X126742726Y-92108735D01*
X126609701Y-92298714D01*
X126609698Y-92298720D01*
X126604381Y-92310123D01*
X126558207Y-92362562D01*
X126491013Y-92381712D01*
X126424133Y-92361495D01*
X126379619Y-92310123D01*
X126374420Y-92298975D01*
X126374301Y-92298719D01*
X126374299Y-92298716D01*
X126374298Y-92298714D01*
X126241273Y-92108735D01*
X126241268Y-92108729D01*
X126077269Y-91944730D01*
X125966292Y-91867023D01*
X125887282Y-91811699D01*
X125875878Y-91806381D01*
X125823440Y-91760210D01*
X125804288Y-91693016D01*
X125824504Y-91626135D01*
X125875878Y-91581618D01*
X125887282Y-91576301D01*
X126077269Y-91443270D01*
X126241270Y-91279269D01*
X126374301Y-91089282D01*
X126379618Y-91077878D01*
X126425790Y-91025440D01*
X126492984Y-91006288D01*
X126559865Y-91026504D01*
G37*
G04 #@! TD.AperFunction*
G04 #@! TA.AperFunction,Conductor*
G36*
X115858619Y-74499209D02*
G01*
X115925498Y-74615048D01*
X116020080Y-74709630D01*
X116135919Y-74776509D01*
X116196057Y-74792622D01*
X115633810Y-75354868D01*
X115698589Y-75400226D01*
X115827781Y-75460470D01*
X115880220Y-75506642D01*
X115899372Y-75573836D01*
X115879156Y-75640717D01*
X115827781Y-75685234D01*
X115698340Y-75745593D01*
X115698338Y-75745594D01*
X115517377Y-75872303D01*
X115361175Y-76028505D01*
X115234466Y-76209466D01*
X115234465Y-76209468D01*
X115174382Y-76338317D01*
X115128209Y-76390756D01*
X115061016Y-76409908D01*
X114994135Y-76389692D01*
X114949618Y-76338317D01*
X114889534Y-76209468D01*
X114889533Y-76209466D01*
X114762827Y-76028509D01*
X114762823Y-76028505D01*
X114606620Y-75872302D01*
X114606616Y-75872299D01*
X114606615Y-75872298D01*
X114425666Y-75745596D01*
X114425662Y-75745594D01*
X114296218Y-75685233D01*
X114243779Y-75639060D01*
X114224627Y-75571867D01*
X114244843Y-75504986D01*
X114296219Y-75460468D01*
X114425416Y-75400223D01*
X114425417Y-75400222D01*
X114490188Y-75354869D01*
X113927942Y-74792622D01*
X113988081Y-74776509D01*
X114103920Y-74709630D01*
X114198502Y-74615048D01*
X114265381Y-74499209D01*
X114281495Y-74439070D01*
X114843741Y-75001316D01*
X114889094Y-74936545D01*
X114889100Y-74936535D01*
X114949618Y-74806755D01*
X114995790Y-74754315D01*
X115062983Y-74735163D01*
X115129865Y-74755379D01*
X115174382Y-74806755D01*
X115234898Y-74936533D01*
X115234901Y-74936539D01*
X115280258Y-75001315D01*
X115280259Y-75001316D01*
X115842504Y-74439070D01*
X115858619Y-74499209D01*
G37*
G04 #@! TD.AperFunction*
G04 #@! TA.AperFunction,Conductor*
G36*
X118398619Y-74499209D02*
G01*
X118465498Y-74615048D01*
X118560080Y-74709630D01*
X118675919Y-74776509D01*
X118736057Y-74792622D01*
X118173810Y-75354868D01*
X118238589Y-75400226D01*
X118367781Y-75460470D01*
X118420220Y-75506642D01*
X118439372Y-75573836D01*
X118419156Y-75640717D01*
X118367781Y-75685234D01*
X118238340Y-75745593D01*
X118238338Y-75745594D01*
X118057377Y-75872303D01*
X117901175Y-76028505D01*
X117774466Y-76209466D01*
X117774465Y-76209468D01*
X117714382Y-76338317D01*
X117668209Y-76390756D01*
X117601016Y-76409908D01*
X117534135Y-76389692D01*
X117489618Y-76338317D01*
X117429534Y-76209468D01*
X117429533Y-76209466D01*
X117302827Y-76028509D01*
X117302823Y-76028505D01*
X117146620Y-75872302D01*
X117146616Y-75872299D01*
X117146615Y-75872298D01*
X116965666Y-75745596D01*
X116965662Y-75745594D01*
X116836218Y-75685233D01*
X116783779Y-75639060D01*
X116764627Y-75571867D01*
X116784843Y-75504986D01*
X116836219Y-75460468D01*
X116965416Y-75400223D01*
X116965417Y-75400222D01*
X117030188Y-75354869D01*
X116467942Y-74792622D01*
X116528081Y-74776509D01*
X116643920Y-74709630D01*
X116738502Y-74615048D01*
X116805381Y-74499209D01*
X116821495Y-74439070D01*
X117383741Y-75001316D01*
X117429094Y-74936545D01*
X117429100Y-74936535D01*
X117489618Y-74806755D01*
X117535790Y-74754315D01*
X117602983Y-74735163D01*
X117669865Y-74755379D01*
X117714382Y-74806755D01*
X117774898Y-74936533D01*
X117774901Y-74936539D01*
X117820258Y-75001315D01*
X117820259Y-75001316D01*
X118382504Y-74439070D01*
X118398619Y-74499209D01*
G37*
G04 #@! TD.AperFunction*
G04 #@! TA.AperFunction,Conductor*
G36*
X120938619Y-74499209D02*
G01*
X121005498Y-74615048D01*
X121100080Y-74709630D01*
X121215919Y-74776509D01*
X121276057Y-74792622D01*
X120713810Y-75354868D01*
X120778589Y-75400226D01*
X120907781Y-75460470D01*
X120960220Y-75506642D01*
X120979372Y-75573836D01*
X120959156Y-75640717D01*
X120907781Y-75685234D01*
X120778340Y-75745593D01*
X120778338Y-75745594D01*
X120597377Y-75872303D01*
X120441175Y-76028505D01*
X120314466Y-76209466D01*
X120314465Y-76209468D01*
X120254382Y-76338317D01*
X120208209Y-76390756D01*
X120141016Y-76409908D01*
X120074135Y-76389692D01*
X120029618Y-76338317D01*
X119969534Y-76209468D01*
X119969533Y-76209466D01*
X119842827Y-76028509D01*
X119842823Y-76028505D01*
X119686620Y-75872302D01*
X119686616Y-75872299D01*
X119686615Y-75872298D01*
X119505666Y-75745596D01*
X119505662Y-75745594D01*
X119376218Y-75685233D01*
X119323779Y-75639060D01*
X119304627Y-75571867D01*
X119324843Y-75504986D01*
X119376219Y-75460468D01*
X119505416Y-75400223D01*
X119505417Y-75400222D01*
X119570188Y-75354869D01*
X119007942Y-74792622D01*
X119068081Y-74776509D01*
X119183920Y-74709630D01*
X119278502Y-74615048D01*
X119345381Y-74499209D01*
X119361495Y-74439070D01*
X119923741Y-75001316D01*
X119969094Y-74936545D01*
X119969100Y-74936535D01*
X120029618Y-74806755D01*
X120075790Y-74754315D01*
X120142983Y-74735163D01*
X120209865Y-74755379D01*
X120254382Y-74806755D01*
X120314898Y-74936533D01*
X120314901Y-74936539D01*
X120360258Y-75001315D01*
X120360259Y-75001316D01*
X120922504Y-74439070D01*
X120938619Y-74499209D01*
G37*
G04 #@! TD.AperFunction*
G04 #@! TA.AperFunction,Conductor*
G36*
X123478619Y-74499209D02*
G01*
X123545498Y-74615048D01*
X123640080Y-74709630D01*
X123755919Y-74776509D01*
X123816057Y-74792622D01*
X123253810Y-75354868D01*
X123318589Y-75400226D01*
X123447781Y-75460470D01*
X123500220Y-75506642D01*
X123519372Y-75573836D01*
X123499156Y-75640717D01*
X123447781Y-75685234D01*
X123318340Y-75745593D01*
X123318338Y-75745594D01*
X123137377Y-75872303D01*
X122981175Y-76028505D01*
X122854466Y-76209466D01*
X122854465Y-76209468D01*
X122794382Y-76338317D01*
X122748209Y-76390756D01*
X122681016Y-76409908D01*
X122614135Y-76389692D01*
X122569618Y-76338317D01*
X122509534Y-76209468D01*
X122509533Y-76209466D01*
X122382827Y-76028509D01*
X122382823Y-76028505D01*
X122226620Y-75872302D01*
X122226616Y-75872299D01*
X122226615Y-75872298D01*
X122045666Y-75745596D01*
X122045662Y-75745594D01*
X121916218Y-75685233D01*
X121863779Y-75639060D01*
X121844627Y-75571867D01*
X121864843Y-75504986D01*
X121916219Y-75460468D01*
X122045416Y-75400223D01*
X122045417Y-75400222D01*
X122110188Y-75354869D01*
X121547942Y-74792622D01*
X121608081Y-74776509D01*
X121723920Y-74709630D01*
X121818502Y-74615048D01*
X121885381Y-74499209D01*
X121901495Y-74439070D01*
X122463741Y-75001316D01*
X122509094Y-74936545D01*
X122509100Y-74936535D01*
X122569618Y-74806755D01*
X122615790Y-74754315D01*
X122682983Y-74735163D01*
X122749865Y-74755379D01*
X122794382Y-74806755D01*
X122854898Y-74936533D01*
X122854901Y-74936539D01*
X122900258Y-75001315D01*
X122900259Y-75001316D01*
X123462504Y-74439070D01*
X123478619Y-74499209D01*
G37*
G04 #@! TD.AperFunction*
G04 #@! TA.AperFunction,Conductor*
G36*
X126018619Y-74499209D02*
G01*
X126085498Y-74615048D01*
X126180080Y-74709630D01*
X126295919Y-74776509D01*
X126356057Y-74792622D01*
X125793810Y-75354868D01*
X125858589Y-75400226D01*
X125987781Y-75460470D01*
X126040220Y-75506642D01*
X126059372Y-75573836D01*
X126039156Y-75640717D01*
X125987781Y-75685234D01*
X125858340Y-75745593D01*
X125858338Y-75745594D01*
X125677377Y-75872303D01*
X125521175Y-76028505D01*
X125394466Y-76209466D01*
X125394465Y-76209468D01*
X125334382Y-76338317D01*
X125288209Y-76390756D01*
X125221016Y-76409908D01*
X125154135Y-76389692D01*
X125109618Y-76338317D01*
X125049534Y-76209468D01*
X125049533Y-76209466D01*
X124922827Y-76028509D01*
X124922823Y-76028505D01*
X124766620Y-75872302D01*
X124766616Y-75872299D01*
X124766615Y-75872298D01*
X124585666Y-75745596D01*
X124585662Y-75745594D01*
X124456218Y-75685233D01*
X124403779Y-75639060D01*
X124384627Y-75571867D01*
X124404843Y-75504986D01*
X124456219Y-75460468D01*
X124585416Y-75400223D01*
X124585417Y-75400222D01*
X124650188Y-75354869D01*
X124087942Y-74792622D01*
X124148081Y-74776509D01*
X124263920Y-74709630D01*
X124358502Y-74615048D01*
X124425381Y-74499209D01*
X124441495Y-74439070D01*
X125003741Y-75001316D01*
X125049094Y-74936545D01*
X125049100Y-74936535D01*
X125109618Y-74806755D01*
X125155790Y-74754315D01*
X125222983Y-74735163D01*
X125289865Y-74755379D01*
X125334382Y-74806755D01*
X125394898Y-74936533D01*
X125394901Y-74936539D01*
X125440258Y-75001315D01*
X125440259Y-75001316D01*
X126002504Y-74439070D01*
X126018619Y-74499209D01*
G37*
G04 #@! TD.AperFunction*
G04 #@! TA.AperFunction,Conductor*
G36*
X128558619Y-74499209D02*
G01*
X128625498Y-74615048D01*
X128720080Y-74709630D01*
X128835919Y-74776509D01*
X128896057Y-74792622D01*
X128333810Y-75354868D01*
X128398589Y-75400226D01*
X128527781Y-75460470D01*
X128580220Y-75506642D01*
X128599372Y-75573836D01*
X128579156Y-75640717D01*
X128527781Y-75685234D01*
X128398340Y-75745593D01*
X128398338Y-75745594D01*
X128217377Y-75872303D01*
X128061175Y-76028505D01*
X127934466Y-76209466D01*
X127934465Y-76209468D01*
X127874382Y-76338317D01*
X127828209Y-76390756D01*
X127761016Y-76409908D01*
X127694135Y-76389692D01*
X127649618Y-76338317D01*
X127589534Y-76209468D01*
X127589533Y-76209466D01*
X127462827Y-76028509D01*
X127462823Y-76028505D01*
X127306620Y-75872302D01*
X127306616Y-75872299D01*
X127306615Y-75872298D01*
X127125666Y-75745596D01*
X127125662Y-75745594D01*
X126996218Y-75685233D01*
X126943779Y-75639060D01*
X126924627Y-75571867D01*
X126944843Y-75504986D01*
X126996219Y-75460468D01*
X127125416Y-75400223D01*
X127125417Y-75400222D01*
X127190188Y-75354869D01*
X126627942Y-74792622D01*
X126688081Y-74776509D01*
X126803920Y-74709630D01*
X126898502Y-74615048D01*
X126965381Y-74499209D01*
X126981495Y-74439070D01*
X127543741Y-75001316D01*
X127589094Y-74936545D01*
X127589100Y-74936535D01*
X127649618Y-74806755D01*
X127695790Y-74754315D01*
X127762983Y-74735163D01*
X127829865Y-74755379D01*
X127874382Y-74806755D01*
X127934898Y-74936533D01*
X127934901Y-74936539D01*
X127980258Y-75001315D01*
X127980259Y-75001316D01*
X128542504Y-74439070D01*
X128558619Y-74499209D01*
G37*
G04 #@! TD.AperFunction*
G04 #@! TA.AperFunction,Conductor*
G36*
X131098619Y-74499209D02*
G01*
X131165498Y-74615048D01*
X131260080Y-74709630D01*
X131375919Y-74776509D01*
X131436057Y-74792622D01*
X130873810Y-75354868D01*
X130938589Y-75400226D01*
X131067781Y-75460470D01*
X131120220Y-75506642D01*
X131139372Y-75573836D01*
X131119156Y-75640717D01*
X131067781Y-75685234D01*
X130938340Y-75745593D01*
X130938338Y-75745594D01*
X130757377Y-75872303D01*
X130601175Y-76028505D01*
X130474466Y-76209466D01*
X130474465Y-76209468D01*
X130414382Y-76338317D01*
X130368209Y-76390756D01*
X130301016Y-76409908D01*
X130234135Y-76389692D01*
X130189618Y-76338317D01*
X130129534Y-76209468D01*
X130129533Y-76209466D01*
X130002827Y-76028509D01*
X130002823Y-76028505D01*
X129846620Y-75872302D01*
X129846616Y-75872299D01*
X129846615Y-75872298D01*
X129665666Y-75745596D01*
X129665662Y-75745594D01*
X129536218Y-75685233D01*
X129483779Y-75639060D01*
X129464627Y-75571867D01*
X129484843Y-75504986D01*
X129536219Y-75460468D01*
X129665416Y-75400223D01*
X129665417Y-75400222D01*
X129730188Y-75354869D01*
X129167942Y-74792622D01*
X129228081Y-74776509D01*
X129343920Y-74709630D01*
X129438502Y-74615048D01*
X129505381Y-74499209D01*
X129521495Y-74439070D01*
X130083741Y-75001316D01*
X130129094Y-74936545D01*
X130129100Y-74936535D01*
X130189618Y-74806755D01*
X130235790Y-74754315D01*
X130302983Y-74735163D01*
X130369865Y-74755379D01*
X130414382Y-74806755D01*
X130474898Y-74936533D01*
X130474901Y-74936539D01*
X130520258Y-75001315D01*
X130520259Y-75001316D01*
X131082504Y-74439070D01*
X131098619Y-74499209D01*
G37*
G04 #@! TD.AperFunction*
G04 #@! TA.AperFunction,Conductor*
G36*
X133638619Y-74499209D02*
G01*
X133705498Y-74615048D01*
X133800080Y-74709630D01*
X133915919Y-74776509D01*
X133976057Y-74792622D01*
X133413810Y-75354868D01*
X133478589Y-75400226D01*
X133607781Y-75460470D01*
X133660220Y-75506642D01*
X133679372Y-75573836D01*
X133659156Y-75640717D01*
X133607781Y-75685234D01*
X133478340Y-75745593D01*
X133478338Y-75745594D01*
X133297377Y-75872303D01*
X133141175Y-76028505D01*
X133014466Y-76209466D01*
X133014465Y-76209468D01*
X132954382Y-76338317D01*
X132908209Y-76390756D01*
X132841016Y-76409908D01*
X132774135Y-76389692D01*
X132729618Y-76338317D01*
X132669534Y-76209468D01*
X132669533Y-76209466D01*
X132542827Y-76028509D01*
X132542823Y-76028505D01*
X132386620Y-75872302D01*
X132386616Y-75872299D01*
X132386615Y-75872298D01*
X132205666Y-75745596D01*
X132205662Y-75745594D01*
X132076218Y-75685233D01*
X132023779Y-75639060D01*
X132004627Y-75571867D01*
X132024843Y-75504986D01*
X132076219Y-75460468D01*
X132205416Y-75400223D01*
X132205417Y-75400222D01*
X132270188Y-75354869D01*
X131707942Y-74792622D01*
X131768081Y-74776509D01*
X131883920Y-74709630D01*
X131978502Y-74615048D01*
X132045381Y-74499209D01*
X132061495Y-74439070D01*
X132623741Y-75001316D01*
X132669094Y-74936545D01*
X132669100Y-74936535D01*
X132729618Y-74806755D01*
X132775790Y-74754315D01*
X132842983Y-74735163D01*
X132909865Y-74755379D01*
X132954382Y-74806755D01*
X133014898Y-74936533D01*
X133014901Y-74936539D01*
X133060258Y-75001315D01*
X133060259Y-75001316D01*
X133622504Y-74439070D01*
X133638619Y-74499209D01*
G37*
G04 #@! TD.AperFunction*
G04 #@! TA.AperFunction,Conductor*
G36*
X135163741Y-75001316D02*
G01*
X135209094Y-74936545D01*
X135209095Y-74936544D01*
X135269340Y-74807347D01*
X135315512Y-74754908D01*
X135382706Y-74735755D01*
X135449587Y-74755970D01*
X135494105Y-74807346D01*
X135554466Y-74936790D01*
X135554468Y-74936794D01*
X135681170Y-75117743D01*
X135681175Y-75117749D01*
X135837378Y-75273952D01*
X135837384Y-75273957D01*
X136018333Y-75400659D01*
X136018335Y-75400660D01*
X136018338Y-75400662D01*
X136137748Y-75456343D01*
X136147189Y-75460746D01*
X136199628Y-75506918D01*
X136218780Y-75574112D01*
X136198564Y-75640993D01*
X136147189Y-75685510D01*
X136018340Y-75745593D01*
X136018338Y-75745594D01*
X135837377Y-75872303D01*
X135681175Y-76028505D01*
X135554466Y-76209466D01*
X135554465Y-76209468D01*
X135494382Y-76338317D01*
X135448209Y-76390756D01*
X135381016Y-76409908D01*
X135314135Y-76389692D01*
X135269618Y-76338317D01*
X135209534Y-76209468D01*
X135209533Y-76209466D01*
X135082827Y-76028509D01*
X135082823Y-76028505D01*
X134926620Y-75872302D01*
X134926616Y-75872299D01*
X134926615Y-75872298D01*
X134745666Y-75745596D01*
X134745662Y-75745594D01*
X134616218Y-75685233D01*
X134563779Y-75639060D01*
X134544627Y-75571867D01*
X134564843Y-75504986D01*
X134616219Y-75460468D01*
X134745416Y-75400223D01*
X134745417Y-75400222D01*
X134810188Y-75354869D01*
X134247942Y-74792622D01*
X134308081Y-74776509D01*
X134423920Y-74709630D01*
X134518502Y-74615048D01*
X134585381Y-74499209D01*
X134601495Y-74439070D01*
X135163741Y-75001316D01*
G37*
G04 #@! TD.AperFunction*
G04 #@! TA.AperFunction,Conductor*
G36*
X115882956Y-72910185D02*
G01*
X115928711Y-72962989D01*
X115938655Y-73032147D01*
X115909630Y-73095703D01*
X115868322Y-73126882D01*
X115698590Y-73206029D01*
X115633811Y-73251386D01*
X116196057Y-73813632D01*
X116135919Y-73829747D01*
X116020080Y-73896626D01*
X115925498Y-73991208D01*
X115858619Y-74107047D01*
X115842504Y-74167185D01*
X115280258Y-73604939D01*
X115234901Y-73669718D01*
X115174382Y-73799501D01*
X115128209Y-73851940D01*
X115061016Y-73871092D01*
X114994135Y-73850876D01*
X114949618Y-73799501D01*
X114889096Y-73669714D01*
X114843741Y-73604939D01*
X114843740Y-73604938D01*
X114281494Y-74167184D01*
X114265381Y-74107047D01*
X114198502Y-73991208D01*
X114103920Y-73896626D01*
X113988081Y-73829747D01*
X113927942Y-73813633D01*
X114490188Y-73251387D01*
X114490187Y-73251386D01*
X114425411Y-73206029D01*
X114425405Y-73206026D01*
X114255679Y-73126882D01*
X114203239Y-73080710D01*
X114184087Y-73013517D01*
X114204303Y-72946635D01*
X114257468Y-72901301D01*
X114308083Y-72890500D01*
X115815917Y-72890500D01*
X115882956Y-72910185D01*
G37*
G04 #@! TD.AperFunction*
G04 #@! TA.AperFunction,Conductor*
G36*
X118422956Y-72910185D02*
G01*
X118468711Y-72962989D01*
X118478655Y-73032147D01*
X118449630Y-73095703D01*
X118408322Y-73126882D01*
X118238590Y-73206029D01*
X118173811Y-73251386D01*
X118736057Y-73813632D01*
X118675919Y-73829747D01*
X118560080Y-73896626D01*
X118465498Y-73991208D01*
X118398619Y-74107047D01*
X118382504Y-74167185D01*
X117820258Y-73604939D01*
X117774901Y-73669718D01*
X117714382Y-73799501D01*
X117668209Y-73851940D01*
X117601016Y-73871092D01*
X117534135Y-73850876D01*
X117489618Y-73799501D01*
X117429096Y-73669714D01*
X117383741Y-73604939D01*
X117383740Y-73604938D01*
X116821494Y-74167184D01*
X116805381Y-74107047D01*
X116738502Y-73991208D01*
X116643920Y-73896626D01*
X116528081Y-73829747D01*
X116467942Y-73813633D01*
X117030188Y-73251387D01*
X117030187Y-73251386D01*
X116965411Y-73206029D01*
X116965405Y-73206026D01*
X116795679Y-73126882D01*
X116743239Y-73080710D01*
X116724087Y-73013517D01*
X116744303Y-72946635D01*
X116797468Y-72901301D01*
X116848083Y-72890500D01*
X118355917Y-72890500D01*
X118422956Y-72910185D01*
G37*
G04 #@! TD.AperFunction*
G04 #@! TA.AperFunction,Conductor*
G36*
X120962956Y-72910185D02*
G01*
X121008711Y-72962989D01*
X121018655Y-73032147D01*
X120989630Y-73095703D01*
X120948322Y-73126882D01*
X120778590Y-73206029D01*
X120713811Y-73251386D01*
X121276057Y-73813632D01*
X121215919Y-73829747D01*
X121100080Y-73896626D01*
X121005498Y-73991208D01*
X120938619Y-74107047D01*
X120922504Y-74167185D01*
X120360258Y-73604939D01*
X120314901Y-73669718D01*
X120254382Y-73799501D01*
X120208209Y-73851940D01*
X120141016Y-73871092D01*
X120074135Y-73850876D01*
X120029618Y-73799501D01*
X119969096Y-73669714D01*
X119923741Y-73604939D01*
X119923740Y-73604938D01*
X119361494Y-74167184D01*
X119345381Y-74107047D01*
X119278502Y-73991208D01*
X119183920Y-73896626D01*
X119068081Y-73829747D01*
X119007942Y-73813633D01*
X119570188Y-73251387D01*
X119570187Y-73251386D01*
X119505411Y-73206029D01*
X119505405Y-73206026D01*
X119335679Y-73126882D01*
X119283239Y-73080710D01*
X119264087Y-73013517D01*
X119284303Y-72946635D01*
X119337468Y-72901301D01*
X119388083Y-72890500D01*
X120895917Y-72890500D01*
X120962956Y-72910185D01*
G37*
G04 #@! TD.AperFunction*
G04 #@! TA.AperFunction,Conductor*
G36*
X123502956Y-72910185D02*
G01*
X123548711Y-72962989D01*
X123558655Y-73032147D01*
X123529630Y-73095703D01*
X123488322Y-73126882D01*
X123318590Y-73206029D01*
X123253811Y-73251386D01*
X123816057Y-73813632D01*
X123755919Y-73829747D01*
X123640080Y-73896626D01*
X123545498Y-73991208D01*
X123478619Y-74107047D01*
X123462504Y-74167185D01*
X122900258Y-73604939D01*
X122854901Y-73669718D01*
X122794382Y-73799501D01*
X122748209Y-73851940D01*
X122681016Y-73871092D01*
X122614135Y-73850876D01*
X122569618Y-73799501D01*
X122509096Y-73669714D01*
X122463741Y-73604939D01*
X122463740Y-73604938D01*
X121901494Y-74167184D01*
X121885381Y-74107047D01*
X121818502Y-73991208D01*
X121723920Y-73896626D01*
X121608081Y-73829747D01*
X121547942Y-73813633D01*
X122110188Y-73251387D01*
X122110187Y-73251386D01*
X122045411Y-73206029D01*
X122045405Y-73206026D01*
X121875679Y-73126882D01*
X121823239Y-73080710D01*
X121804087Y-73013517D01*
X121824303Y-72946635D01*
X121877468Y-72901301D01*
X121928083Y-72890500D01*
X123435917Y-72890500D01*
X123502956Y-72910185D01*
G37*
G04 #@! TD.AperFunction*
G04 #@! TA.AperFunction,Conductor*
G36*
X126042956Y-72910185D02*
G01*
X126088711Y-72962989D01*
X126098655Y-73032147D01*
X126069630Y-73095703D01*
X126028322Y-73126882D01*
X125858590Y-73206029D01*
X125793811Y-73251386D01*
X126356057Y-73813632D01*
X126295919Y-73829747D01*
X126180080Y-73896626D01*
X126085498Y-73991208D01*
X126018619Y-74107047D01*
X126002504Y-74167185D01*
X125440258Y-73604939D01*
X125394901Y-73669718D01*
X125334382Y-73799501D01*
X125288209Y-73851940D01*
X125221016Y-73871092D01*
X125154135Y-73850876D01*
X125109618Y-73799501D01*
X125049096Y-73669714D01*
X125003741Y-73604939D01*
X125003740Y-73604938D01*
X124441494Y-74167184D01*
X124425381Y-74107047D01*
X124358502Y-73991208D01*
X124263920Y-73896626D01*
X124148081Y-73829747D01*
X124087942Y-73813633D01*
X124650188Y-73251387D01*
X124650187Y-73251386D01*
X124585411Y-73206029D01*
X124585405Y-73206026D01*
X124415679Y-73126882D01*
X124363239Y-73080710D01*
X124344087Y-73013517D01*
X124364303Y-72946635D01*
X124417468Y-72901301D01*
X124468083Y-72890500D01*
X125975917Y-72890500D01*
X126042956Y-72910185D01*
G37*
G04 #@! TD.AperFunction*
G04 #@! TA.AperFunction,Conductor*
G36*
X128582956Y-72910185D02*
G01*
X128628711Y-72962989D01*
X128638655Y-73032147D01*
X128609630Y-73095703D01*
X128568322Y-73126882D01*
X128398590Y-73206029D01*
X128333811Y-73251386D01*
X128896057Y-73813632D01*
X128835919Y-73829747D01*
X128720080Y-73896626D01*
X128625498Y-73991208D01*
X128558619Y-74107047D01*
X128542505Y-74167185D01*
X127980258Y-73604939D01*
X127934901Y-73669718D01*
X127874382Y-73799501D01*
X127828209Y-73851940D01*
X127761016Y-73871092D01*
X127694135Y-73850876D01*
X127649618Y-73799501D01*
X127589096Y-73669714D01*
X127543741Y-73604939D01*
X127543740Y-73604938D01*
X126981494Y-74167184D01*
X126965381Y-74107047D01*
X126898502Y-73991208D01*
X126803920Y-73896626D01*
X126688081Y-73829747D01*
X126627942Y-73813633D01*
X127190188Y-73251387D01*
X127190187Y-73251386D01*
X127125411Y-73206029D01*
X127125405Y-73206026D01*
X126955679Y-73126882D01*
X126903239Y-73080710D01*
X126884087Y-73013517D01*
X126904303Y-72946635D01*
X126957468Y-72901301D01*
X127008083Y-72890500D01*
X128515917Y-72890500D01*
X128582956Y-72910185D01*
G37*
G04 #@! TD.AperFunction*
G04 #@! TA.AperFunction,Conductor*
G36*
X131122956Y-72910185D02*
G01*
X131168711Y-72962989D01*
X131178655Y-73032147D01*
X131149630Y-73095703D01*
X131108322Y-73126882D01*
X130938590Y-73206029D01*
X130873811Y-73251386D01*
X131436057Y-73813632D01*
X131375919Y-73829747D01*
X131260080Y-73896626D01*
X131165498Y-73991208D01*
X131098619Y-74107047D01*
X131082504Y-74167185D01*
X130520258Y-73604939D01*
X130474901Y-73669718D01*
X130414382Y-73799501D01*
X130368209Y-73851940D01*
X130301016Y-73871092D01*
X130234135Y-73850876D01*
X130189618Y-73799501D01*
X130129096Y-73669714D01*
X130083741Y-73604939D01*
X130083740Y-73604938D01*
X129521494Y-74167184D01*
X129505381Y-74107047D01*
X129438502Y-73991208D01*
X129343920Y-73896626D01*
X129228081Y-73829747D01*
X129167942Y-73813633D01*
X129730188Y-73251387D01*
X129730187Y-73251386D01*
X129665411Y-73206029D01*
X129665405Y-73206026D01*
X129495679Y-73126882D01*
X129443239Y-73080710D01*
X129424087Y-73013517D01*
X129444303Y-72946635D01*
X129497468Y-72901301D01*
X129548083Y-72890500D01*
X131055917Y-72890500D01*
X131122956Y-72910185D01*
G37*
G04 #@! TD.AperFunction*
G04 #@! TA.AperFunction,Conductor*
G36*
X133662956Y-72910185D02*
G01*
X133708711Y-72962989D01*
X133718655Y-73032147D01*
X133689630Y-73095703D01*
X133648322Y-73126882D01*
X133478590Y-73206029D01*
X133413811Y-73251386D01*
X133976057Y-73813632D01*
X133915919Y-73829747D01*
X133800080Y-73896626D01*
X133705498Y-73991208D01*
X133638619Y-74107047D01*
X133622504Y-74167185D01*
X133060258Y-73604939D01*
X133014901Y-73669718D01*
X132954382Y-73799501D01*
X132908209Y-73851940D01*
X132841016Y-73871092D01*
X132774135Y-73850876D01*
X132729618Y-73799501D01*
X132669096Y-73669714D01*
X132623741Y-73604939D01*
X132623740Y-73604938D01*
X132061494Y-74167184D01*
X132045381Y-74107047D01*
X131978502Y-73991208D01*
X131883920Y-73896626D01*
X131768081Y-73829747D01*
X131707942Y-73813633D01*
X132270188Y-73251387D01*
X132270187Y-73251386D01*
X132205411Y-73206029D01*
X132205405Y-73206026D01*
X132035679Y-73126882D01*
X131983239Y-73080710D01*
X131964087Y-73013517D01*
X131984303Y-72946635D01*
X132037468Y-72901301D01*
X132088083Y-72890500D01*
X133595917Y-72890500D01*
X133662956Y-72910185D01*
G37*
G04 #@! TD.AperFunction*
G04 #@! TA.AperFunction,Conductor*
G36*
X136201772Y-72910185D02*
G01*
X136247527Y-72962989D01*
X136257471Y-73032147D01*
X136228446Y-73095703D01*
X136187139Y-73126881D01*
X136122439Y-73157050D01*
X136018340Y-73205593D01*
X136018338Y-73205594D01*
X135837377Y-73332303D01*
X135681175Y-73488505D01*
X135554467Y-73669465D01*
X135494105Y-73798910D01*
X135447932Y-73851349D01*
X135380738Y-73870500D01*
X135313857Y-73850284D01*
X135269341Y-73798908D01*
X135209098Y-73669717D01*
X135209097Y-73669715D01*
X135163741Y-73604939D01*
X135163740Y-73604938D01*
X134601494Y-74167184D01*
X134585381Y-74107047D01*
X134518502Y-73991208D01*
X134423920Y-73896626D01*
X134308081Y-73829747D01*
X134247942Y-73813633D01*
X134810188Y-73251387D01*
X134810187Y-73251386D01*
X134745411Y-73206029D01*
X134745405Y-73206026D01*
X134575679Y-73126882D01*
X134523239Y-73080710D01*
X134504087Y-73013517D01*
X134524303Y-72946635D01*
X134577468Y-72901301D01*
X134628083Y-72890500D01*
X136134733Y-72890500D01*
X136201772Y-72910185D01*
G37*
G04 #@! TD.AperFunction*
M02*
