%TF.GenerationSoftware,KiCad,Pcbnew,8.0.2-1*%
%TF.CreationDate,2024-12-21T19:47:06+01:00*%
%TF.ProjectId,ten_to_six,74656e5f-746f-45f7-9369-782e6b696361,rev?*%
%TF.SameCoordinates,Original*%
%TF.FileFunction,Drillmap*%
%TF.FilePolarity,Positive*%
%FSLAX45Y45*%
G04 Gerber Fmt 4.5, Leading zero omitted, Abs format (unit mm)*
G04 Created by KiCad (PCBNEW 8.0.2-1) date 2024-12-21 19:47:06*
%MOMM*%
%LPD*%
G01*
G04 APERTURE LIST*
%ADD10C,0.050000*%
%ADD11C,0.200000*%
%ADD12C,0.101600*%
%ADD13C,0.110000*%
G04 APERTURE END LIST*
D10*
X14097000Y-8407400D02*
X14097000Y-7239000D01*
X14097000Y-8407400D02*
X13385800Y-9728200D01*
X13385800Y-9728200D02*
X11658600Y-9728200D01*
X10947400Y-8407400D02*
X10947400Y-7239000D01*
X11658600Y-9728200D02*
X10947400Y-8407400D01*
X10947400Y-7239000D02*
X14097000Y-7239000D01*
D11*
D12*
X11328400Y-7379513D02*
X11430000Y-7481113D01*
X11430000Y-7379513D02*
X11328400Y-7481113D01*
X11328400Y-7633513D02*
X11430000Y-7735113D01*
X11430000Y-7633513D02*
X11328400Y-7735113D01*
X11582400Y-7379513D02*
X11684000Y-7481113D01*
X11684000Y-7379513D02*
X11582400Y-7481113D01*
X11582400Y-7633513D02*
X11684000Y-7735113D01*
X11684000Y-7633513D02*
X11582400Y-7735113D01*
X11836400Y-7379513D02*
X11938000Y-7481113D01*
X11938000Y-7379513D02*
X11836400Y-7481113D01*
X11836400Y-7633513D02*
X11938000Y-7735113D01*
X11938000Y-7633513D02*
X11836400Y-7735113D01*
X12090400Y-7379513D02*
X12192000Y-7481113D01*
X12192000Y-7379513D02*
X12090400Y-7481113D01*
X12090400Y-7633513D02*
X12192000Y-7735113D01*
X12192000Y-7633513D02*
X12090400Y-7735113D01*
X12344400Y-7379513D02*
X12446000Y-7481113D01*
X12446000Y-7379513D02*
X12344400Y-7481113D01*
X12344400Y-7633513D02*
X12446000Y-7735113D01*
X12446000Y-7633513D02*
X12344400Y-7735113D01*
X12598400Y-7379513D02*
X12700000Y-7481113D01*
X12700000Y-7379513D02*
X12598400Y-7481113D01*
X12598400Y-7633513D02*
X12700000Y-7735113D01*
X12700000Y-7633513D02*
X12598400Y-7735113D01*
X12852400Y-7379513D02*
X12954000Y-7481113D01*
X12954000Y-7379513D02*
X12852400Y-7481113D01*
X12852400Y-7633513D02*
X12954000Y-7735113D01*
X12954000Y-7633513D02*
X12852400Y-7735113D01*
X13106400Y-7379513D02*
X13208000Y-7481113D01*
X13208000Y-7379513D02*
X13106400Y-7481113D01*
X13106400Y-7633513D02*
X13208000Y-7735113D01*
X13208000Y-7633513D02*
X13106400Y-7735113D01*
X13360400Y-7379513D02*
X13462000Y-7481113D01*
X13462000Y-7379513D02*
X13360400Y-7481113D01*
X13360400Y-7633513D02*
X13462000Y-7735113D01*
X13462000Y-7633513D02*
X13360400Y-7735113D01*
X13614400Y-7379513D02*
X13716000Y-7481113D01*
X13716000Y-7379513D02*
X13614400Y-7481113D01*
X13614400Y-7633513D02*
X13716000Y-7735113D01*
X13716000Y-7633513D02*
X13614400Y-7735113D01*
D13*
X12323200Y-9042400D02*
G75*
G02*
X12213200Y-9042400I-55000J0D01*
G01*
X12213200Y-9042400D02*
G75*
G02*
X12323200Y-9042400I55000J0D01*
G01*
X12323200Y-9296400D02*
G75*
G02*
X12213200Y-9296400I-55000J0D01*
G01*
X12213200Y-9296400D02*
G75*
G02*
X12323200Y-9296400I55000J0D01*
G01*
X12577200Y-9042400D02*
G75*
G02*
X12467200Y-9042400I-55000J0D01*
G01*
X12467200Y-9042400D02*
G75*
G02*
X12577200Y-9042400I55000J0D01*
G01*
X12577200Y-9296400D02*
G75*
G02*
X12467200Y-9296400I-55000J0D01*
G01*
X12467200Y-9296400D02*
G75*
G02*
X12577200Y-9296400I55000J0D01*
G01*
X12831200Y-9042400D02*
G75*
G02*
X12721200Y-9042400I-55000J0D01*
G01*
X12721200Y-9042400D02*
G75*
G02*
X12831200Y-9042400I55000J0D01*
G01*
X12831200Y-9296400D02*
G75*
G02*
X12721200Y-9296400I-55000J0D01*
G01*
X12721200Y-9296400D02*
G75*
G02*
X12831200Y-9296400I55000J0D01*
G01*
D11*
X11205677Y-10042184D02*
X11205677Y-9842184D01*
X11205677Y-9842184D02*
X11253296Y-9842184D01*
X11253296Y-9842184D02*
X11281867Y-9851708D01*
X11281867Y-9851708D02*
X11300915Y-9870755D01*
X11300915Y-9870755D02*
X11310439Y-9889803D01*
X11310439Y-9889803D02*
X11319962Y-9927898D01*
X11319962Y-9927898D02*
X11319962Y-9956470D01*
X11319962Y-9956470D02*
X11310439Y-9994565D01*
X11310439Y-9994565D02*
X11300915Y-10013612D01*
X11300915Y-10013612D02*
X11281867Y-10032660D01*
X11281867Y-10032660D02*
X11253296Y-10042184D01*
X11253296Y-10042184D02*
X11205677Y-10042184D01*
X11405677Y-10042184D02*
X11405677Y-9908850D01*
X11405677Y-9946946D02*
X11415201Y-9927898D01*
X11415201Y-9927898D02*
X11424724Y-9918374D01*
X11424724Y-9918374D02*
X11443772Y-9908850D01*
X11443772Y-9908850D02*
X11462820Y-9908850D01*
X11529486Y-10042184D02*
X11529486Y-9908850D01*
X11529486Y-9842184D02*
X11519962Y-9851708D01*
X11519962Y-9851708D02*
X11529486Y-9861231D01*
X11529486Y-9861231D02*
X11539010Y-9851708D01*
X11539010Y-9851708D02*
X11529486Y-9842184D01*
X11529486Y-9842184D02*
X11529486Y-9861231D01*
X11653296Y-10042184D02*
X11634248Y-10032660D01*
X11634248Y-10032660D02*
X11624724Y-10013612D01*
X11624724Y-10013612D02*
X11624724Y-9842184D01*
X11758058Y-10042184D02*
X11739010Y-10032660D01*
X11739010Y-10032660D02*
X11729486Y-10013612D01*
X11729486Y-10013612D02*
X11729486Y-9842184D01*
X11986629Y-10042184D02*
X11986629Y-9842184D01*
X11986629Y-9842184D02*
X12053296Y-9985041D01*
X12053296Y-9985041D02*
X12119962Y-9842184D01*
X12119962Y-9842184D02*
X12119962Y-10042184D01*
X12300915Y-10042184D02*
X12300915Y-9937422D01*
X12300915Y-9937422D02*
X12291391Y-9918374D01*
X12291391Y-9918374D02*
X12272343Y-9908850D01*
X12272343Y-9908850D02*
X12234248Y-9908850D01*
X12234248Y-9908850D02*
X12215201Y-9918374D01*
X12300915Y-10032660D02*
X12281867Y-10042184D01*
X12281867Y-10042184D02*
X12234248Y-10042184D01*
X12234248Y-10042184D02*
X12215201Y-10032660D01*
X12215201Y-10032660D02*
X12205677Y-10013612D01*
X12205677Y-10013612D02*
X12205677Y-9994565D01*
X12205677Y-9994565D02*
X12215201Y-9975517D01*
X12215201Y-9975517D02*
X12234248Y-9965993D01*
X12234248Y-9965993D02*
X12281867Y-9965993D01*
X12281867Y-9965993D02*
X12300915Y-9956470D01*
X12396153Y-9908850D02*
X12396153Y-10108850D01*
X12396153Y-9918374D02*
X12415201Y-9908850D01*
X12415201Y-9908850D02*
X12453296Y-9908850D01*
X12453296Y-9908850D02*
X12472343Y-9918374D01*
X12472343Y-9918374D02*
X12481867Y-9927898D01*
X12481867Y-9927898D02*
X12491391Y-9946946D01*
X12491391Y-9946946D02*
X12491391Y-10004089D01*
X12491391Y-10004089D02*
X12481867Y-10023136D01*
X12481867Y-10023136D02*
X12472343Y-10032660D01*
X12472343Y-10032660D02*
X12453296Y-10042184D01*
X12453296Y-10042184D02*
X12415201Y-10042184D01*
X12415201Y-10042184D02*
X12396153Y-10032660D01*
X12577105Y-10023136D02*
X12586629Y-10032660D01*
X12586629Y-10032660D02*
X12577105Y-10042184D01*
X12577105Y-10042184D02*
X12567582Y-10032660D01*
X12567582Y-10032660D02*
X12577105Y-10023136D01*
X12577105Y-10023136D02*
X12577105Y-10042184D01*
X12577105Y-9918374D02*
X12586629Y-9927898D01*
X12586629Y-9927898D02*
X12577105Y-9937422D01*
X12577105Y-9937422D02*
X12567582Y-9927898D01*
X12567582Y-9927898D02*
X12577105Y-9918374D01*
X12577105Y-9918374D02*
X12577105Y-9937422D01*
D12*
X10843300Y-10319900D02*
X10944900Y-10421500D01*
X10944900Y-10319900D02*
X10843300Y-10421500D01*
D11*
X11310439Y-10462184D02*
X11196153Y-10462184D01*
X11253296Y-10462184D02*
X11253296Y-10262184D01*
X11253296Y-10262184D02*
X11234248Y-10290755D01*
X11234248Y-10290755D02*
X11215201Y-10309803D01*
X11215201Y-10309803D02*
X11196153Y-10319327D01*
X11396153Y-10443136D02*
X11405677Y-10452660D01*
X11405677Y-10452660D02*
X11396153Y-10462184D01*
X11396153Y-10462184D02*
X11386629Y-10452660D01*
X11386629Y-10452660D02*
X11396153Y-10443136D01*
X11396153Y-10443136D02*
X11396153Y-10462184D01*
X11529486Y-10262184D02*
X11548534Y-10262184D01*
X11548534Y-10262184D02*
X11567582Y-10271708D01*
X11567582Y-10271708D02*
X11577105Y-10281231D01*
X11577105Y-10281231D02*
X11586629Y-10300279D01*
X11586629Y-10300279D02*
X11596153Y-10338374D01*
X11596153Y-10338374D02*
X11596153Y-10385993D01*
X11596153Y-10385993D02*
X11586629Y-10424089D01*
X11586629Y-10424089D02*
X11577105Y-10443136D01*
X11577105Y-10443136D02*
X11567582Y-10452660D01*
X11567582Y-10452660D02*
X11548534Y-10462184D01*
X11548534Y-10462184D02*
X11529486Y-10462184D01*
X11529486Y-10462184D02*
X11510439Y-10452660D01*
X11510439Y-10452660D02*
X11500915Y-10443136D01*
X11500915Y-10443136D02*
X11491391Y-10424089D01*
X11491391Y-10424089D02*
X11481867Y-10385993D01*
X11481867Y-10385993D02*
X11481867Y-10338374D01*
X11481867Y-10338374D02*
X11491391Y-10300279D01*
X11491391Y-10300279D02*
X11500915Y-10281231D01*
X11500915Y-10281231D02*
X11510439Y-10271708D01*
X11510439Y-10271708D02*
X11529486Y-10262184D01*
X11786629Y-10462184D02*
X11672343Y-10462184D01*
X11729486Y-10462184D02*
X11729486Y-10262184D01*
X11729486Y-10262184D02*
X11710439Y-10290755D01*
X11710439Y-10290755D02*
X11691391Y-10309803D01*
X11691391Y-10309803D02*
X11672343Y-10319327D01*
X11958058Y-10262184D02*
X11919962Y-10262184D01*
X11919962Y-10262184D02*
X11900915Y-10271708D01*
X11900915Y-10271708D02*
X11891391Y-10281231D01*
X11891391Y-10281231D02*
X11872343Y-10309803D01*
X11872343Y-10309803D02*
X11862820Y-10347898D01*
X11862820Y-10347898D02*
X11862820Y-10424089D01*
X11862820Y-10424089D02*
X11872343Y-10443136D01*
X11872343Y-10443136D02*
X11881867Y-10452660D01*
X11881867Y-10452660D02*
X11900915Y-10462184D01*
X11900915Y-10462184D02*
X11939010Y-10462184D01*
X11939010Y-10462184D02*
X11958058Y-10452660D01*
X11958058Y-10452660D02*
X11967582Y-10443136D01*
X11967582Y-10443136D02*
X11977105Y-10424089D01*
X11977105Y-10424089D02*
X11977105Y-10376470D01*
X11977105Y-10376470D02*
X11967582Y-10357422D01*
X11967582Y-10357422D02*
X11958058Y-10347898D01*
X11958058Y-10347898D02*
X11939010Y-10338374D01*
X11939010Y-10338374D02*
X11900915Y-10338374D01*
X11900915Y-10338374D02*
X11881867Y-10347898D01*
X11881867Y-10347898D02*
X11872343Y-10357422D01*
X11872343Y-10357422D02*
X11862820Y-10376470D01*
X12062820Y-10462184D02*
X12062820Y-10328850D01*
X12062820Y-10347898D02*
X12072343Y-10338374D01*
X12072343Y-10338374D02*
X12091391Y-10328850D01*
X12091391Y-10328850D02*
X12119963Y-10328850D01*
X12119963Y-10328850D02*
X12139010Y-10338374D01*
X12139010Y-10338374D02*
X12148534Y-10357422D01*
X12148534Y-10357422D02*
X12148534Y-10462184D01*
X12148534Y-10357422D02*
X12158058Y-10338374D01*
X12158058Y-10338374D02*
X12177105Y-10328850D01*
X12177105Y-10328850D02*
X12205677Y-10328850D01*
X12205677Y-10328850D02*
X12224724Y-10338374D01*
X12224724Y-10338374D02*
X12234248Y-10357422D01*
X12234248Y-10357422D02*
X12234248Y-10462184D01*
X12329486Y-10462184D02*
X12329486Y-10328850D01*
X12329486Y-10347898D02*
X12339010Y-10338374D01*
X12339010Y-10338374D02*
X12358058Y-10328850D01*
X12358058Y-10328850D02*
X12386629Y-10328850D01*
X12386629Y-10328850D02*
X12405677Y-10338374D01*
X12405677Y-10338374D02*
X12415201Y-10357422D01*
X12415201Y-10357422D02*
X12415201Y-10462184D01*
X12415201Y-10357422D02*
X12424724Y-10338374D01*
X12424724Y-10338374D02*
X12443772Y-10328850D01*
X12443772Y-10328850D02*
X12472343Y-10328850D01*
X12472343Y-10328850D02*
X12491391Y-10338374D01*
X12491391Y-10338374D02*
X12500915Y-10357422D01*
X12500915Y-10357422D02*
X12500915Y-10462184D01*
X12891391Y-10252660D02*
X12719963Y-10509803D01*
X13148534Y-10262184D02*
X13167582Y-10262184D01*
X13167582Y-10262184D02*
X13186629Y-10271708D01*
X13186629Y-10271708D02*
X13196153Y-10281231D01*
X13196153Y-10281231D02*
X13205677Y-10300279D01*
X13205677Y-10300279D02*
X13215201Y-10338374D01*
X13215201Y-10338374D02*
X13215201Y-10385993D01*
X13215201Y-10385993D02*
X13205677Y-10424089D01*
X13205677Y-10424089D02*
X13196153Y-10443136D01*
X13196153Y-10443136D02*
X13186629Y-10452660D01*
X13186629Y-10452660D02*
X13167582Y-10462184D01*
X13167582Y-10462184D02*
X13148534Y-10462184D01*
X13148534Y-10462184D02*
X13129486Y-10452660D01*
X13129486Y-10452660D02*
X13119963Y-10443136D01*
X13119963Y-10443136D02*
X13110439Y-10424089D01*
X13110439Y-10424089D02*
X13100915Y-10385993D01*
X13100915Y-10385993D02*
X13100915Y-10338374D01*
X13100915Y-10338374D02*
X13110439Y-10300279D01*
X13110439Y-10300279D02*
X13119963Y-10281231D01*
X13119963Y-10281231D02*
X13129486Y-10271708D01*
X13129486Y-10271708D02*
X13148534Y-10262184D01*
X13300915Y-10443136D02*
X13310439Y-10452660D01*
X13310439Y-10452660D02*
X13300915Y-10462184D01*
X13300915Y-10462184D02*
X13291391Y-10452660D01*
X13291391Y-10452660D02*
X13300915Y-10443136D01*
X13300915Y-10443136D02*
X13300915Y-10462184D01*
X13434248Y-10262184D02*
X13453296Y-10262184D01*
X13453296Y-10262184D02*
X13472344Y-10271708D01*
X13472344Y-10271708D02*
X13481867Y-10281231D01*
X13481867Y-10281231D02*
X13491391Y-10300279D01*
X13491391Y-10300279D02*
X13500915Y-10338374D01*
X13500915Y-10338374D02*
X13500915Y-10385993D01*
X13500915Y-10385993D02*
X13491391Y-10424089D01*
X13491391Y-10424089D02*
X13481867Y-10443136D01*
X13481867Y-10443136D02*
X13472344Y-10452660D01*
X13472344Y-10452660D02*
X13453296Y-10462184D01*
X13453296Y-10462184D02*
X13434248Y-10462184D01*
X13434248Y-10462184D02*
X13415201Y-10452660D01*
X13415201Y-10452660D02*
X13405677Y-10443136D01*
X13405677Y-10443136D02*
X13396153Y-10424089D01*
X13396153Y-10424089D02*
X13386629Y-10385993D01*
X13386629Y-10385993D02*
X13386629Y-10338374D01*
X13386629Y-10338374D02*
X13396153Y-10300279D01*
X13396153Y-10300279D02*
X13405677Y-10281231D01*
X13405677Y-10281231D02*
X13415201Y-10271708D01*
X13415201Y-10271708D02*
X13434248Y-10262184D01*
X13672344Y-10328850D02*
X13672344Y-10462184D01*
X13624725Y-10252660D02*
X13577106Y-10395517D01*
X13577106Y-10395517D02*
X13700915Y-10395517D01*
X13815201Y-10262184D02*
X13834248Y-10262184D01*
X13834248Y-10262184D02*
X13853296Y-10271708D01*
X13853296Y-10271708D02*
X13862820Y-10281231D01*
X13862820Y-10281231D02*
X13872344Y-10300279D01*
X13872344Y-10300279D02*
X13881867Y-10338374D01*
X13881867Y-10338374D02*
X13881867Y-10385993D01*
X13881867Y-10385993D02*
X13872344Y-10424089D01*
X13872344Y-10424089D02*
X13862820Y-10443136D01*
X13862820Y-10443136D02*
X13853296Y-10452660D01*
X13853296Y-10452660D02*
X13834248Y-10462184D01*
X13834248Y-10462184D02*
X13815201Y-10462184D01*
X13815201Y-10462184D02*
X13796153Y-10452660D01*
X13796153Y-10452660D02*
X13786629Y-10443136D01*
X13786629Y-10443136D02*
X13777106Y-10424089D01*
X13777106Y-10424089D02*
X13767582Y-10385993D01*
X13767582Y-10385993D02*
X13767582Y-10338374D01*
X13767582Y-10338374D02*
X13777106Y-10300279D01*
X13777106Y-10300279D02*
X13786629Y-10281231D01*
X13786629Y-10281231D02*
X13796153Y-10271708D01*
X13796153Y-10271708D02*
X13815201Y-10262184D01*
X14005677Y-10262184D02*
X14024725Y-10262184D01*
X14024725Y-10262184D02*
X14043772Y-10271708D01*
X14043772Y-10271708D02*
X14053296Y-10281231D01*
X14053296Y-10281231D02*
X14062820Y-10300279D01*
X14062820Y-10300279D02*
X14072344Y-10338374D01*
X14072344Y-10338374D02*
X14072344Y-10385993D01*
X14072344Y-10385993D02*
X14062820Y-10424089D01*
X14062820Y-10424089D02*
X14053296Y-10443136D01*
X14053296Y-10443136D02*
X14043772Y-10452660D01*
X14043772Y-10452660D02*
X14024725Y-10462184D01*
X14024725Y-10462184D02*
X14005677Y-10462184D01*
X14005677Y-10462184D02*
X13986629Y-10452660D01*
X13986629Y-10452660D02*
X13977106Y-10443136D01*
X13977106Y-10443136D02*
X13967582Y-10424089D01*
X13967582Y-10424089D02*
X13958058Y-10385993D01*
X13958058Y-10385993D02*
X13958058Y-10338374D01*
X13958058Y-10338374D02*
X13967582Y-10300279D01*
X13967582Y-10300279D02*
X13977106Y-10281231D01*
X13977106Y-10281231D02*
X13986629Y-10271708D01*
X13986629Y-10271708D02*
X14005677Y-10262184D01*
X14148534Y-10262184D02*
X14148534Y-10300279D01*
X14224725Y-10262184D02*
X14224725Y-10300279D01*
X14519963Y-10538374D02*
X14510439Y-10528850D01*
X14510439Y-10528850D02*
X14491391Y-10500279D01*
X14491391Y-10500279D02*
X14481868Y-10481231D01*
X14481868Y-10481231D02*
X14472344Y-10452660D01*
X14472344Y-10452660D02*
X14462820Y-10405041D01*
X14462820Y-10405041D02*
X14462820Y-10366946D01*
X14462820Y-10366946D02*
X14472344Y-10319327D01*
X14472344Y-10319327D02*
X14481868Y-10290755D01*
X14481868Y-10290755D02*
X14491391Y-10271708D01*
X14491391Y-10271708D02*
X14510439Y-10243136D01*
X14510439Y-10243136D02*
X14519963Y-10233612D01*
X14586629Y-10281231D02*
X14596153Y-10271708D01*
X14596153Y-10271708D02*
X14615201Y-10262184D01*
X14615201Y-10262184D02*
X14662820Y-10262184D01*
X14662820Y-10262184D02*
X14681868Y-10271708D01*
X14681868Y-10271708D02*
X14691391Y-10281231D01*
X14691391Y-10281231D02*
X14700915Y-10300279D01*
X14700915Y-10300279D02*
X14700915Y-10319327D01*
X14700915Y-10319327D02*
X14691391Y-10347898D01*
X14691391Y-10347898D02*
X14577106Y-10462184D01*
X14577106Y-10462184D02*
X14700915Y-10462184D01*
X14824725Y-10262184D02*
X14843772Y-10262184D01*
X14843772Y-10262184D02*
X14862820Y-10271708D01*
X14862820Y-10271708D02*
X14872344Y-10281231D01*
X14872344Y-10281231D02*
X14881868Y-10300279D01*
X14881868Y-10300279D02*
X14891391Y-10338374D01*
X14891391Y-10338374D02*
X14891391Y-10385993D01*
X14891391Y-10385993D02*
X14881868Y-10424089D01*
X14881868Y-10424089D02*
X14872344Y-10443136D01*
X14872344Y-10443136D02*
X14862820Y-10452660D01*
X14862820Y-10452660D02*
X14843772Y-10462184D01*
X14843772Y-10462184D02*
X14824725Y-10462184D01*
X14824725Y-10462184D02*
X14805677Y-10452660D01*
X14805677Y-10452660D02*
X14796153Y-10443136D01*
X14796153Y-10443136D02*
X14786629Y-10424089D01*
X14786629Y-10424089D02*
X14777106Y-10385993D01*
X14777106Y-10385993D02*
X14777106Y-10338374D01*
X14777106Y-10338374D02*
X14786629Y-10300279D01*
X14786629Y-10300279D02*
X14796153Y-10281231D01*
X14796153Y-10281231D02*
X14805677Y-10271708D01*
X14805677Y-10271708D02*
X14824725Y-10262184D01*
X15129487Y-10462184D02*
X15129487Y-10262184D01*
X15215201Y-10462184D02*
X15215201Y-10357422D01*
X15215201Y-10357422D02*
X15205677Y-10338374D01*
X15205677Y-10338374D02*
X15186630Y-10328850D01*
X15186630Y-10328850D02*
X15158058Y-10328850D01*
X15158058Y-10328850D02*
X15139010Y-10338374D01*
X15139010Y-10338374D02*
X15129487Y-10347898D01*
X15339010Y-10462184D02*
X15319963Y-10452660D01*
X15319963Y-10452660D02*
X15310439Y-10443136D01*
X15310439Y-10443136D02*
X15300915Y-10424089D01*
X15300915Y-10424089D02*
X15300915Y-10366946D01*
X15300915Y-10366946D02*
X15310439Y-10347898D01*
X15310439Y-10347898D02*
X15319963Y-10338374D01*
X15319963Y-10338374D02*
X15339010Y-10328850D01*
X15339010Y-10328850D02*
X15367582Y-10328850D01*
X15367582Y-10328850D02*
X15386630Y-10338374D01*
X15386630Y-10338374D02*
X15396153Y-10347898D01*
X15396153Y-10347898D02*
X15405677Y-10366946D01*
X15405677Y-10366946D02*
X15405677Y-10424089D01*
X15405677Y-10424089D02*
X15396153Y-10443136D01*
X15396153Y-10443136D02*
X15386630Y-10452660D01*
X15386630Y-10452660D02*
X15367582Y-10462184D01*
X15367582Y-10462184D02*
X15339010Y-10462184D01*
X15519963Y-10462184D02*
X15500915Y-10452660D01*
X15500915Y-10452660D02*
X15491391Y-10433612D01*
X15491391Y-10433612D02*
X15491391Y-10262184D01*
X15672344Y-10452660D02*
X15653296Y-10462184D01*
X15653296Y-10462184D02*
X15615201Y-10462184D01*
X15615201Y-10462184D02*
X15596153Y-10452660D01*
X15596153Y-10452660D02*
X15586630Y-10433612D01*
X15586630Y-10433612D02*
X15586630Y-10357422D01*
X15586630Y-10357422D02*
X15596153Y-10338374D01*
X15596153Y-10338374D02*
X15615201Y-10328850D01*
X15615201Y-10328850D02*
X15653296Y-10328850D01*
X15653296Y-10328850D02*
X15672344Y-10338374D01*
X15672344Y-10338374D02*
X15681868Y-10357422D01*
X15681868Y-10357422D02*
X15681868Y-10376470D01*
X15681868Y-10376470D02*
X15586630Y-10395517D01*
X15758058Y-10452660D02*
X15777106Y-10462184D01*
X15777106Y-10462184D02*
X15815201Y-10462184D01*
X15815201Y-10462184D02*
X15834249Y-10452660D01*
X15834249Y-10452660D02*
X15843772Y-10433612D01*
X15843772Y-10433612D02*
X15843772Y-10424089D01*
X15843772Y-10424089D02*
X15834249Y-10405041D01*
X15834249Y-10405041D02*
X15815201Y-10395517D01*
X15815201Y-10395517D02*
X15786630Y-10395517D01*
X15786630Y-10395517D02*
X15767582Y-10385993D01*
X15767582Y-10385993D02*
X15758058Y-10366946D01*
X15758058Y-10366946D02*
X15758058Y-10357422D01*
X15758058Y-10357422D02*
X15767582Y-10338374D01*
X15767582Y-10338374D02*
X15786630Y-10328850D01*
X15786630Y-10328850D02*
X15815201Y-10328850D01*
X15815201Y-10328850D02*
X15834249Y-10338374D01*
X15910439Y-10538374D02*
X15919963Y-10528850D01*
X15919963Y-10528850D02*
X15939011Y-10500279D01*
X15939011Y-10500279D02*
X15948534Y-10481231D01*
X15948534Y-10481231D02*
X15958058Y-10452660D01*
X15958058Y-10452660D02*
X15967582Y-10405041D01*
X15967582Y-10405041D02*
X15967582Y-10366946D01*
X15967582Y-10366946D02*
X15958058Y-10319327D01*
X15958058Y-10319327D02*
X15948534Y-10290755D01*
X15948534Y-10290755D02*
X15939011Y-10271708D01*
X15939011Y-10271708D02*
X15919963Y-10243136D01*
X15919963Y-10243136D02*
X15910439Y-10233612D01*
D13*
X10944900Y-10634700D02*
G75*
G02*
X10834900Y-10634700I-55000J0D01*
G01*
X10834900Y-10634700D02*
G75*
G02*
X10944900Y-10634700I55000J0D01*
G01*
D11*
X11310439Y-10726184D02*
X11196153Y-10726184D01*
X11253296Y-10726184D02*
X11253296Y-10526184D01*
X11253296Y-10526184D02*
X11234248Y-10554755D01*
X11234248Y-10554755D02*
X11215201Y-10573803D01*
X11215201Y-10573803D02*
X11196153Y-10583327D01*
X11396153Y-10707136D02*
X11405677Y-10716660D01*
X11405677Y-10716660D02*
X11396153Y-10726184D01*
X11396153Y-10726184D02*
X11386629Y-10716660D01*
X11386629Y-10716660D02*
X11396153Y-10707136D01*
X11396153Y-10707136D02*
X11396153Y-10726184D01*
X11596153Y-10726184D02*
X11481867Y-10726184D01*
X11539010Y-10726184D02*
X11539010Y-10526184D01*
X11539010Y-10526184D02*
X11519962Y-10554755D01*
X11519962Y-10554755D02*
X11500915Y-10573803D01*
X11500915Y-10573803D02*
X11481867Y-10583327D01*
X11719962Y-10526184D02*
X11739010Y-10526184D01*
X11739010Y-10526184D02*
X11758058Y-10535708D01*
X11758058Y-10535708D02*
X11767582Y-10545231D01*
X11767582Y-10545231D02*
X11777105Y-10564279D01*
X11777105Y-10564279D02*
X11786629Y-10602374D01*
X11786629Y-10602374D02*
X11786629Y-10649993D01*
X11786629Y-10649993D02*
X11777105Y-10688089D01*
X11777105Y-10688089D02*
X11767582Y-10707136D01*
X11767582Y-10707136D02*
X11758058Y-10716660D01*
X11758058Y-10716660D02*
X11739010Y-10726184D01*
X11739010Y-10726184D02*
X11719962Y-10726184D01*
X11719962Y-10726184D02*
X11700915Y-10716660D01*
X11700915Y-10716660D02*
X11691391Y-10707136D01*
X11691391Y-10707136D02*
X11681867Y-10688089D01*
X11681867Y-10688089D02*
X11672343Y-10649993D01*
X11672343Y-10649993D02*
X11672343Y-10602374D01*
X11672343Y-10602374D02*
X11681867Y-10564279D01*
X11681867Y-10564279D02*
X11691391Y-10545231D01*
X11691391Y-10545231D02*
X11700915Y-10535708D01*
X11700915Y-10535708D02*
X11719962Y-10526184D01*
X11910439Y-10526184D02*
X11929486Y-10526184D01*
X11929486Y-10526184D02*
X11948534Y-10535708D01*
X11948534Y-10535708D02*
X11958058Y-10545231D01*
X11958058Y-10545231D02*
X11967582Y-10564279D01*
X11967582Y-10564279D02*
X11977105Y-10602374D01*
X11977105Y-10602374D02*
X11977105Y-10649993D01*
X11977105Y-10649993D02*
X11967582Y-10688089D01*
X11967582Y-10688089D02*
X11958058Y-10707136D01*
X11958058Y-10707136D02*
X11948534Y-10716660D01*
X11948534Y-10716660D02*
X11929486Y-10726184D01*
X11929486Y-10726184D02*
X11910439Y-10726184D01*
X11910439Y-10726184D02*
X11891391Y-10716660D01*
X11891391Y-10716660D02*
X11881867Y-10707136D01*
X11881867Y-10707136D02*
X11872343Y-10688089D01*
X11872343Y-10688089D02*
X11862820Y-10649993D01*
X11862820Y-10649993D02*
X11862820Y-10602374D01*
X11862820Y-10602374D02*
X11872343Y-10564279D01*
X11872343Y-10564279D02*
X11881867Y-10545231D01*
X11881867Y-10545231D02*
X11891391Y-10535708D01*
X11891391Y-10535708D02*
X11910439Y-10526184D01*
X12062820Y-10726184D02*
X12062820Y-10592850D01*
X12062820Y-10611898D02*
X12072343Y-10602374D01*
X12072343Y-10602374D02*
X12091391Y-10592850D01*
X12091391Y-10592850D02*
X12119963Y-10592850D01*
X12119963Y-10592850D02*
X12139010Y-10602374D01*
X12139010Y-10602374D02*
X12148534Y-10621422D01*
X12148534Y-10621422D02*
X12148534Y-10726184D01*
X12148534Y-10621422D02*
X12158058Y-10602374D01*
X12158058Y-10602374D02*
X12177105Y-10592850D01*
X12177105Y-10592850D02*
X12205677Y-10592850D01*
X12205677Y-10592850D02*
X12224724Y-10602374D01*
X12224724Y-10602374D02*
X12234248Y-10621422D01*
X12234248Y-10621422D02*
X12234248Y-10726184D01*
X12329486Y-10726184D02*
X12329486Y-10592850D01*
X12329486Y-10611898D02*
X12339010Y-10602374D01*
X12339010Y-10602374D02*
X12358058Y-10592850D01*
X12358058Y-10592850D02*
X12386629Y-10592850D01*
X12386629Y-10592850D02*
X12405677Y-10602374D01*
X12405677Y-10602374D02*
X12415201Y-10621422D01*
X12415201Y-10621422D02*
X12415201Y-10726184D01*
X12415201Y-10621422D02*
X12424724Y-10602374D01*
X12424724Y-10602374D02*
X12443772Y-10592850D01*
X12443772Y-10592850D02*
X12472343Y-10592850D01*
X12472343Y-10592850D02*
X12491391Y-10602374D01*
X12491391Y-10602374D02*
X12500915Y-10621422D01*
X12500915Y-10621422D02*
X12500915Y-10726184D01*
X12891391Y-10516660D02*
X12719963Y-10773803D01*
X13148534Y-10526184D02*
X13167582Y-10526184D01*
X13167582Y-10526184D02*
X13186629Y-10535708D01*
X13186629Y-10535708D02*
X13196153Y-10545231D01*
X13196153Y-10545231D02*
X13205677Y-10564279D01*
X13205677Y-10564279D02*
X13215201Y-10602374D01*
X13215201Y-10602374D02*
X13215201Y-10649993D01*
X13215201Y-10649993D02*
X13205677Y-10688089D01*
X13205677Y-10688089D02*
X13196153Y-10707136D01*
X13196153Y-10707136D02*
X13186629Y-10716660D01*
X13186629Y-10716660D02*
X13167582Y-10726184D01*
X13167582Y-10726184D02*
X13148534Y-10726184D01*
X13148534Y-10726184D02*
X13129486Y-10716660D01*
X13129486Y-10716660D02*
X13119963Y-10707136D01*
X13119963Y-10707136D02*
X13110439Y-10688089D01*
X13110439Y-10688089D02*
X13100915Y-10649993D01*
X13100915Y-10649993D02*
X13100915Y-10602374D01*
X13100915Y-10602374D02*
X13110439Y-10564279D01*
X13110439Y-10564279D02*
X13119963Y-10545231D01*
X13119963Y-10545231D02*
X13129486Y-10535708D01*
X13129486Y-10535708D02*
X13148534Y-10526184D01*
X13300915Y-10707136D02*
X13310439Y-10716660D01*
X13310439Y-10716660D02*
X13300915Y-10726184D01*
X13300915Y-10726184D02*
X13291391Y-10716660D01*
X13291391Y-10716660D02*
X13300915Y-10707136D01*
X13300915Y-10707136D02*
X13300915Y-10726184D01*
X13434248Y-10526184D02*
X13453296Y-10526184D01*
X13453296Y-10526184D02*
X13472344Y-10535708D01*
X13472344Y-10535708D02*
X13481867Y-10545231D01*
X13481867Y-10545231D02*
X13491391Y-10564279D01*
X13491391Y-10564279D02*
X13500915Y-10602374D01*
X13500915Y-10602374D02*
X13500915Y-10649993D01*
X13500915Y-10649993D02*
X13491391Y-10688089D01*
X13491391Y-10688089D02*
X13481867Y-10707136D01*
X13481867Y-10707136D02*
X13472344Y-10716660D01*
X13472344Y-10716660D02*
X13453296Y-10726184D01*
X13453296Y-10726184D02*
X13434248Y-10726184D01*
X13434248Y-10726184D02*
X13415201Y-10716660D01*
X13415201Y-10716660D02*
X13405677Y-10707136D01*
X13405677Y-10707136D02*
X13396153Y-10688089D01*
X13396153Y-10688089D02*
X13386629Y-10649993D01*
X13386629Y-10649993D02*
X13386629Y-10602374D01*
X13386629Y-10602374D02*
X13396153Y-10564279D01*
X13396153Y-10564279D02*
X13405677Y-10545231D01*
X13405677Y-10545231D02*
X13415201Y-10535708D01*
X13415201Y-10535708D02*
X13434248Y-10526184D01*
X13672344Y-10592850D02*
X13672344Y-10726184D01*
X13624725Y-10516660D02*
X13577106Y-10659517D01*
X13577106Y-10659517D02*
X13700915Y-10659517D01*
X13758058Y-10526184D02*
X13881867Y-10526184D01*
X13881867Y-10526184D02*
X13815201Y-10602374D01*
X13815201Y-10602374D02*
X13843772Y-10602374D01*
X13843772Y-10602374D02*
X13862820Y-10611898D01*
X13862820Y-10611898D02*
X13872344Y-10621422D01*
X13872344Y-10621422D02*
X13881867Y-10640470D01*
X13881867Y-10640470D02*
X13881867Y-10688089D01*
X13881867Y-10688089D02*
X13872344Y-10707136D01*
X13872344Y-10707136D02*
X13862820Y-10716660D01*
X13862820Y-10716660D02*
X13843772Y-10726184D01*
X13843772Y-10726184D02*
X13786629Y-10726184D01*
X13786629Y-10726184D02*
X13767582Y-10716660D01*
X13767582Y-10716660D02*
X13758058Y-10707136D01*
X13948534Y-10526184D02*
X14072344Y-10526184D01*
X14072344Y-10526184D02*
X14005677Y-10602374D01*
X14005677Y-10602374D02*
X14034248Y-10602374D01*
X14034248Y-10602374D02*
X14053296Y-10611898D01*
X14053296Y-10611898D02*
X14062820Y-10621422D01*
X14062820Y-10621422D02*
X14072344Y-10640470D01*
X14072344Y-10640470D02*
X14072344Y-10688089D01*
X14072344Y-10688089D02*
X14062820Y-10707136D01*
X14062820Y-10707136D02*
X14053296Y-10716660D01*
X14053296Y-10716660D02*
X14034248Y-10726184D01*
X14034248Y-10726184D02*
X13977106Y-10726184D01*
X13977106Y-10726184D02*
X13958058Y-10716660D01*
X13958058Y-10716660D02*
X13948534Y-10707136D01*
X14148534Y-10526184D02*
X14148534Y-10564279D01*
X14224725Y-10526184D02*
X14224725Y-10564279D01*
X14519963Y-10802374D02*
X14510439Y-10792850D01*
X14510439Y-10792850D02*
X14491391Y-10764279D01*
X14491391Y-10764279D02*
X14481868Y-10745231D01*
X14481868Y-10745231D02*
X14472344Y-10716660D01*
X14472344Y-10716660D02*
X14462820Y-10669041D01*
X14462820Y-10669041D02*
X14462820Y-10630946D01*
X14462820Y-10630946D02*
X14472344Y-10583327D01*
X14472344Y-10583327D02*
X14481868Y-10554755D01*
X14481868Y-10554755D02*
X14491391Y-10535708D01*
X14491391Y-10535708D02*
X14510439Y-10507136D01*
X14510439Y-10507136D02*
X14519963Y-10497612D01*
X14681868Y-10526184D02*
X14643772Y-10526184D01*
X14643772Y-10526184D02*
X14624725Y-10535708D01*
X14624725Y-10535708D02*
X14615201Y-10545231D01*
X14615201Y-10545231D02*
X14596153Y-10573803D01*
X14596153Y-10573803D02*
X14586629Y-10611898D01*
X14586629Y-10611898D02*
X14586629Y-10688089D01*
X14586629Y-10688089D02*
X14596153Y-10707136D01*
X14596153Y-10707136D02*
X14605677Y-10716660D01*
X14605677Y-10716660D02*
X14624725Y-10726184D01*
X14624725Y-10726184D02*
X14662820Y-10726184D01*
X14662820Y-10726184D02*
X14681868Y-10716660D01*
X14681868Y-10716660D02*
X14691391Y-10707136D01*
X14691391Y-10707136D02*
X14700915Y-10688089D01*
X14700915Y-10688089D02*
X14700915Y-10640470D01*
X14700915Y-10640470D02*
X14691391Y-10621422D01*
X14691391Y-10621422D02*
X14681868Y-10611898D01*
X14681868Y-10611898D02*
X14662820Y-10602374D01*
X14662820Y-10602374D02*
X14624725Y-10602374D01*
X14624725Y-10602374D02*
X14605677Y-10611898D01*
X14605677Y-10611898D02*
X14596153Y-10621422D01*
X14596153Y-10621422D02*
X14586629Y-10640470D01*
X14939010Y-10726184D02*
X14939010Y-10526184D01*
X15024725Y-10726184D02*
X15024725Y-10621422D01*
X15024725Y-10621422D02*
X15015201Y-10602374D01*
X15015201Y-10602374D02*
X14996153Y-10592850D01*
X14996153Y-10592850D02*
X14967582Y-10592850D01*
X14967582Y-10592850D02*
X14948534Y-10602374D01*
X14948534Y-10602374D02*
X14939010Y-10611898D01*
X15148534Y-10726184D02*
X15129487Y-10716660D01*
X15129487Y-10716660D02*
X15119963Y-10707136D01*
X15119963Y-10707136D02*
X15110439Y-10688089D01*
X15110439Y-10688089D02*
X15110439Y-10630946D01*
X15110439Y-10630946D02*
X15119963Y-10611898D01*
X15119963Y-10611898D02*
X15129487Y-10602374D01*
X15129487Y-10602374D02*
X15148534Y-10592850D01*
X15148534Y-10592850D02*
X15177106Y-10592850D01*
X15177106Y-10592850D02*
X15196153Y-10602374D01*
X15196153Y-10602374D02*
X15205677Y-10611898D01*
X15205677Y-10611898D02*
X15215201Y-10630946D01*
X15215201Y-10630946D02*
X15215201Y-10688089D01*
X15215201Y-10688089D02*
X15205677Y-10707136D01*
X15205677Y-10707136D02*
X15196153Y-10716660D01*
X15196153Y-10716660D02*
X15177106Y-10726184D01*
X15177106Y-10726184D02*
X15148534Y-10726184D01*
X15329487Y-10726184D02*
X15310439Y-10716660D01*
X15310439Y-10716660D02*
X15300915Y-10697612D01*
X15300915Y-10697612D02*
X15300915Y-10526184D01*
X15481868Y-10716660D02*
X15462820Y-10726184D01*
X15462820Y-10726184D02*
X15424725Y-10726184D01*
X15424725Y-10726184D02*
X15405677Y-10716660D01*
X15405677Y-10716660D02*
X15396153Y-10697612D01*
X15396153Y-10697612D02*
X15396153Y-10621422D01*
X15396153Y-10621422D02*
X15405677Y-10602374D01*
X15405677Y-10602374D02*
X15424725Y-10592850D01*
X15424725Y-10592850D02*
X15462820Y-10592850D01*
X15462820Y-10592850D02*
X15481868Y-10602374D01*
X15481868Y-10602374D02*
X15491391Y-10621422D01*
X15491391Y-10621422D02*
X15491391Y-10640470D01*
X15491391Y-10640470D02*
X15396153Y-10659517D01*
X15567582Y-10716660D02*
X15586630Y-10726184D01*
X15586630Y-10726184D02*
X15624725Y-10726184D01*
X15624725Y-10726184D02*
X15643772Y-10716660D01*
X15643772Y-10716660D02*
X15653296Y-10697612D01*
X15653296Y-10697612D02*
X15653296Y-10688089D01*
X15653296Y-10688089D02*
X15643772Y-10669041D01*
X15643772Y-10669041D02*
X15624725Y-10659517D01*
X15624725Y-10659517D02*
X15596153Y-10659517D01*
X15596153Y-10659517D02*
X15577106Y-10649993D01*
X15577106Y-10649993D02*
X15567582Y-10630946D01*
X15567582Y-10630946D02*
X15567582Y-10621422D01*
X15567582Y-10621422D02*
X15577106Y-10602374D01*
X15577106Y-10602374D02*
X15596153Y-10592850D01*
X15596153Y-10592850D02*
X15624725Y-10592850D01*
X15624725Y-10592850D02*
X15643772Y-10602374D01*
X15719963Y-10802374D02*
X15729487Y-10792850D01*
X15729487Y-10792850D02*
X15748534Y-10764279D01*
X15748534Y-10764279D02*
X15758058Y-10745231D01*
X15758058Y-10745231D02*
X15767582Y-10716660D01*
X15767582Y-10716660D02*
X15777106Y-10669041D01*
X15777106Y-10669041D02*
X15777106Y-10630946D01*
X15777106Y-10630946D02*
X15767582Y-10583327D01*
X15767582Y-10583327D02*
X15758058Y-10554755D01*
X15758058Y-10554755D02*
X15748534Y-10535708D01*
X15748534Y-10535708D02*
X15729487Y-10507136D01*
X15729487Y-10507136D02*
X15719963Y-10497612D01*
M02*
